/* XPM */
static char * knob_img_medium_xpm[] = {
"46 46 485 2",
"  	c None",
". 	c #AEA59D",
"+ 	c #ABA29A",
"@ 	c #AEA59C",
"# 	c #A59D95",
"$ 	c #9F968E",
"% 	c #ADA49C",
"& 	c #A89E96",
"* 	c #A19890",
"= 	c #9D958D",
"- 	c #9A9189",
"; 	c #9E958C",
"> 	c #7F7771",
", 	c #6F6762",
"' 	c #C7BFB7",
") 	c #BDB4AC",
"! 	c #B6ADA5",
"~ 	c #AAA198",
"{ 	c #A19991",
"] 	c #999089",
"^ 	c #9D948C",
"/ 	c #A39B92",
"( 	c #A89F97",
"_ 	c #A59C93",
": 	c #A39A92",
"< 	c #A49B93",
"[ 	c #A29A91",
"} 	c #9E968E",
"| 	c #A0978F",
"1 	c #9C948B",
"2 	c #938A83",
"3 	c #8C847E",
"4 	c #756C67",
"5 	c #D4CCC2",
"6 	c #BFB7AF",
"7 	c #B5ACA3",
"8 	c #AFA69E",
"9 	c #A9A097",
"0 	c #989088",
"a 	c #A69E95",
"b 	c #A9A098",
"c 	c #A79E94",
"d 	c #A59D94",
"e 	c #A49B92",
"f 	c #9D948A",
"g 	c #A79E96",
"h 	c #8D857D",
"i 	c #837B74",
"j 	c #918881",
"k 	c #716862",
"l 	c #CBC2BA",
"m 	c #C6BEB6",
"n 	c #A59C94",
"o 	c #A49C93",
"p 	c #ABA299",
"q 	c #ACA39B",
"r 	c #AAA199",
"s 	c #A29991",
"t 	c #9E968D",
"u 	c #A0968E",
"v 	c #9C938A",
"w 	c #9F968D",
"x 	c #948B83",
"y 	c #968E86",
"z 	c #968C84",
"A 	c #8F877F",
"B 	c #8C847D",
"C 	c #DCD5CD",
"D 	c #C9C0B7",
"E 	c #BBB2AA",
"F 	c #A8A098",
"G 	c #A69D96",
"H 	c #AFA69D",
"I 	c #9C948C",
"J 	c #A0988F",
"K 	c #A79F95",
"L 	c #989087",
"M 	c #978F86",
"N 	c #9C938B",
"O 	c #9B928A",
"P 	c #9D958C",
"Q 	c #958C84",
"R 	c #9D948D",
"S 	c #A39A91",
"T 	c #887F77",
"U 	c #6B635E",
"V 	c #EBE9E4",
"W 	c #C7BFB6",
"X 	c #B4ABA3",
"Y 	c #ABA39A",
"Z 	c #9F978F",
"` 	c #AAA19A",
" .	c #B1A9A0",
"..	c #AEA69D",
"+.	c #ACA49B",
"@.	c #A39B93",
"#.	c #A49C94",
"$.	c #A09890",
"%.	c #9E958D",
"&.	c #A29990",
"*.	c #999087",
"=.	c #968D86",
"-.	c #888078",
";.	c #7F7871",
">.	c #C6BFB6",
",.	c #C0B9B0",
"'.	c #A29992",
").	c #A69E96",
"!.	c #B7AEA6",
"~.	c #B3ABA2",
"{.	c #ACA49C",
"].	c #ABA39B",
"^.	c #A8A097",
"/.	c #A89F96",
"(.	c #9F978E",
"_.	c #9D948B",
":.	c #A79E95",
"<.	c #9E958B",
"[.	c #968D85",
"}.	c #908780",
"|.	c #928982",
"1.	c #938A82",
"2.	c #DFDBD5",
"3.	c #AAA29A",
"4.	c #B5ACA4",
"5.	c #A59C95",
"6.	c #A79F97",
"7.	c #A69D95",
"8.	c #A29A92",
"9.	c #999088",
"0.	c #978E86",
"a.	c #928A82",
"b.	c #7B736E",
"c.	c #E7E6E0",
"d.	c #BFB8B0",
"e.	c #AEA69E",
"f.	c #B0A7A0",
"g.	c #BAB1A9",
"h.	c #BBB2A9",
"i.	c #BFB6AD",
"j.	c #B0A79F",
"k.	c #ADA59D",
"l.	c #9B938A",
"m.	c #988F86",
"n.	c #988F87",
"o.	c #5A534E",
"p.	c #C4BCB4",
"q.	c #B7AFA7",
"r.	c #BEB5AD",
"s.	c #BEB6AE",
"t.	c #C1B8B0",
"u.	c #ADA39B",
"v.	c #B0A89F",
"w.	c #A0978E",
"x.	c #948C83",
"y.	c #857D76",
"z.	c #DCD7D2",
"A.	c #C6BEB5",
"B.	c #C4BBB3",
"C.	c #BFB6AE",
"D.	c #C0B7AF",
"E.	c #BFB6AF",
"F.	c #B9B0A7",
"G.	c #B3AAA2",
"H.	c #B1A9A1",
"I.	c #B6ADA6",
"J.	c #B1A8A0",
"K.	c #AAA197",
"L.	c #9A9188",
"M.	c #999189",
"N.	c #8E857E",
"O.	c #8E867F",
"P.	c #8F867F",
"Q.	c #DFDAD5",
"R.	c #CEC7BF",
"S.	c #CAC1B9",
"T.	c #C2B9B0",
"U.	c #C7BDB5",
"V.	c #BDB3AB",
"W.	c #B8AFA6",
"X.	c #B7AEA5",
"Y.	c #BCB3AB",
"Z.	c #AAA299",
"`.	c #A69D94",
" +	c #B1A89F",
".+	c #9B9289",
"++	c #978D85",
"@+	c #928981",
"#+	c #968E85",
"$+	c #91887F",
"%+	c #938A81",
"&+	c #D4CDC4",
"*+	c #C6BDB5",
"=+	c #C5BCB4",
"-+	c #BDB4AB",
";+	c #BAB2A9",
">+	c #BBB3AB",
",+	c #BAB1A8",
"'+	c #B4ABA2",
")+	c #AEA49C",
"!+	c #AFA79E",
"~+	c #A89F95",
"{+	c #978E85",
"]+	c #8C837C",
"^+	c #E5E3DB",
"/+	c #CBC3BA",
"(+	c #C2B9B1",
"_+	c #B8AFA7",
":+	c #B2A99F",
"<+	c #B5ADA5",
"[+	c #B2A9A1",
"}+	c #B0A79E",
"|+	c #ADA49B",
"1+	c #ABA199",
"2+	c #A2988F",
"3+	c #968D84",
"4+	c #958D85",
"5+	c #958C83",
"6+	c #8D847D",
"7+	c #766F69",
"8+	c #CFC8BE",
"9+	c #C7BEB5",
"0+	c #BDB5AC",
"a+	c #C3BAB1",
"b+	c #BEB4AC",
"c+	c #BAB2AA",
"d+	c #B2A9A0",
"e+	c #A79D95",
"f+	c #ADA39A",
"g+	c #ACA39A",
"h+	c #A19990",
"i+	c #A0968D",
"j+	c #938B82",
"k+	c #877E77",
"l+	c #C4BBB2",
"m+	c #C0B7AE",
"n+	c #B6ADA4",
"o+	c #B7AFA6",
"p+	c #ADA49A",
"q+	c #A1988F",
"r+	c #9B9189",
"s+	c #877E76",
"t+	c #878078",
"u+	c #CEC5BE",
"v+	c #C1B9B1",
"w+	c #C8BFB6",
"x+	c #B0A8A0",
"y+	c #B7AEA7",
"z+	c #B8AFA5",
"A+	c #B5ACA2",
"B+	c #BCB3AA",
"C+	c #AFA69C",
"D+	c #A2998F",
"E+	c #918980",
"F+	c #8E857D",
"G+	c #8A817A",
"H+	c #6F6660",
"I+	c #DBD4CD",
"J+	c #CCC3BB",
"K+	c #C7BEB6",
"L+	c #B7ADA6",
"M+	c #BCB3AC",
"N+	c #B9B0A8",
"O+	c #B3AAA1",
"P+	c #B2A8A0",
"Q+	c #9B9288",
"R+	c #847B75",
"S+	c #CCC4BB",
"T+	c #BBB1A9",
"U+	c #BFB7AE",
"V+	c #B4ACA3",
"W+	c #B1A7A0",
"X+	c #948B82",
"Y+	c #867E76",
"Z+	c #817972",
"`+	c #B8AEA6",
" @	c #AFA59D",
".@	c #A69D93",
"+@	c #A1978E",
"@@	c #867D76",
"#@	c #8A827A",
"$@	c #CDC4BC",
"%@	c #B9B1A8",
"&@	c #ABA298",
"*@	c #8C837B",
"=@	c #877E75",
"-@	c #D2C9C0",
";@	c #CBC3BB",
">@	c #CEC5BD",
",@	c #CAC2B9",
"'@	c #B6ACA3",
")@	c #B0A69E",
"!@	c #A9A096",
"~@	c #918880",
"{@	c #857D75",
"]@	c #D5CDC4",
"^@	c #D1C8C0",
"/@	c #C2B8AF",
"(@	c #B4ABA4",
"_@	c #B3A9A1",
":@	c #B7ADA5",
"<@	c #ABA29B",
"[@	c #9F958C",
"}@	c #948B84",
"|@	c #D8D2C9",
"1@	c #C9C1B8",
"2@	c #C1B8AF",
"3@	c #B5ADA4",
"4@	c #ACA39C",
"5@	c #B5ABA3",
"6@	c #9E958E",
"7@	c #D1C9C1",
"8@	c #C6BDB4",
"9@	c #BEB5AC",
"0@	c #AFA69F",
"a@	c #A49A91",
"b@	c #9A9187",
"c@	c #8F877E",
"d@	c #8D847C",
"e@	c #807871",
"f@	c #D3CBC3",
"g@	c #C9C1B9",
"h@	c #C3BAB2",
"i@	c #C9C0B8",
"j@	c #CCC3BA",
"k@	c #B9AFA7",
"l@	c #B8AEA5",
"m@	c #BAB0A7",
"n@	c #8F867E",
"o@	c #877F77",
"p@	c #766D67",
"q@	c #CEC6BD",
"r@	c #BCB4AB",
"s@	c #B6AFB0",
"t@	c #B0AAB4",
"u@	c #AFA59C",
"v@	c #908880",
"w@	c #C0B8AF",
"x@	c #8887B3",
"y@	c #162AED",
"z@	c #273AF1",
"A@	c #B5AEB0",
"B@	c #BCB2A9",
"C@	c #B1A79F",
"D@	c #B4ABA1",
"E@	c #A99F96",
"F@	c #A59C92",
"G@	c #958D84",
"H@	c #D6CFC6",
"I@	c #C3BBB2",
"J@	c #C5BCB3",
"K@	c #B8B0A8",
"L@	c #AEA9B6",
"M@	c #3845D6",
"N@	c #011BFE",
"O@	c #001AFF",
"P@	c #7C80CF",
"Q@	c #BBB1A8",
"R@	c #B1A89E",
"S@	c #ACA299",
"T@	c #AAA097",
"U@	c #A49A92",
"V@	c #A69C93",
"W@	c #9B938B",
"X@	c #A0978D",
"Y@	c #675F59",
"Z@	c #C8C0B8",
"`@	c #C5BDB4",
" #	c #BEB5B1",
".#	c #686DC3",
"+#	c #071FF7",
"@#	c #0C23F5",
"##	c #777BC8",
"$#	c #BFB7B0",
"%#	c #B6AEA5",
"&#	c #BFB5AC",
"*#	c #B1A79E",
"=#	c #AAA098",
"-#	c #777068",
";#	c #CFC7BF",
">#	c #9693B0",
",#	c #1429EE",
"'#	c #3A48DF",
")#	c #B3AAA0",
"!#	c #A09790",
"~#	c #9E948B",
"{#	c #8B837B",
"]#	c #D6CFC7",
"^#	c #CCC4BC",
"/#	c #C8C0B7",
"(#	c #B5AEAF",
"_#	c #535BC9",
":#	c #031CFA",
"<#	c #172CF0",
"[#	c #8688C8",
"}#	c #C5BBB3",
"|#	c #A89F98",
"1#	c #B0A69D",
"2#	c #B2A89F",
"3#	c #A39A90",
"4#	c #A1978F",
"5#	c #9A9289",
"6#	c #7E766F",
"7#	c #D9D4CB",
"8#	c #7F80BE",
"9#	c #1429EF",
"0#	c #021CFC",
"a#	c #4F5BDA",
"b#	c #B9B1B2",
"c#	c #8E867D",
"d#	c #9B99B8",
"e#	c #3241DB",
"f#	c #2738E6",
"g#	c #A7A3BA",
"h#	c #CAC2BA",
"i#	c #B9AFA6",
"j#	c #B6ADA3",
"k#	c #A79D94",
"l#	c #78706A",
"m#	c #1D2DD1",
"n#	c #021BFB",
"o#	c #0820F9",
"p#	c #7277D0",
"q#	c #C9C0BA",
"r#	c #CDC5BC",
"s#	c #CAC1B8",
"t#	c #57514C",
"u#	c #0C21E9",
"v#	c #4756EE",
"w#	c #C1BDCB",
"x#	c #C4BCB3",
"y#	c #6B635C",
"z#	c #CDC6BF",
"A#	c #CDC4BB",
"B#	c #B7AEA4",
"C#	c #ACA49A",
"D#	c #A59B92",
"E#	c #ABA399",
"F#	c #7D756E",
"G#	c #DAD5CF",
"H#	c #D1C9C0",
"I#	c #CFC8BF",
"J#	c #C8BFB7",
"K#	c #CDC5BD",
"L#	c #BEB4AB",
"M#	c #C5BBB2",
"N#	c #B7ADA4",
"O#	c #5A534F",
"P#	c #D7D1C8",
"Q#	c #D2C9C1",
"R#	c #CBC2B9",
"S#	c #C1B9B0",
"T#	c #887F78",
"U#	c #D0C7BE",
"V#	c #CFC7BE",
"W#	c #B6ACA4",
"X#	c #AEA59B",
"Y#	c #534C48",
"Z#	c #DFDAD2",
"`#	c #CEC6BE",
" $	c #CFC6BD",
".$	c #BAB0A8",
"+$	c #B3A9A0",
"@$	c #A69C94",
"#$	c #8B827B",
"$$	c #403A33",
"%$	c #DCD6CF",
"&$	c #D0C8BF",
"*$	c #B0A79D",
"=$	c #423C3A",
"-$	c #B4AAA1",
";$	c #6A635D",
">$	c #BEB7B0",
",$	c #C3B9B1",
"'$	c #BFB5AD",
")$	c #968E87",
"!$	c #716963",
"~$	c #37302B",
"{$	c #665F5A",
"]$	c #423B36",
"^$	c #A49C96",
"/$	c #AFA79F",
"($	c #A19891",
"_$	c #918982",
":$	c #766F6A",
"                                . + @ # $ $ % & * = - ; > ,                                 ",
"                          ' ) ! ~ ~ { ] ^ / ( _ : < [ } | 1 2 3 4                           ",
"                      5 6 7 8 9 * 0 | a b c d e ; f } g 9 - 1 h i j k                       ",
"                    l m + % n : = o b p q r s t u a ( v w - x j y z A B                     ",
"                C D E % + F : G r + H b } I | J K $ L M N O - P Q R S L T U                 ",
"              V W X Y Z n `  ...+.8 d < @.#.d $.%.N &.&.&.* *.O : ; O ^ =.-.;.              ",
"            >.,.H | '.).!.~.8 % F {.].r + ^.: * './.(._.P $ s e :.<.* [.}.|.1.i             ",
"          2.W @ / 3.! 4.X ! r 5.% ).6.( | (.t 7.7.8.&.N - &.&.d J | 9.0.N 9.9.a.b.          ",
"        c.d.e.f.g.h.i.h.j.< k.8 * | #.8.N 8.g s : s | n < S | ( t - t l.m.n.a.n.1.o.        ",
"        p.q.X r.s.t.h.u.v.^.< n r s Z [ / 6.S e S ~ ( < e # @.w a t _.w.n.9.9.[.x.y.        ",
"      z.A.B.C.D.E.F.G.H.I.{.J.K.o $.n ^.b o * 3.8 @.&.n e %.&.< N d ; L.P M.N.O.P.9.}.      ",
"    Q.R.S.T.U.V.W.X.!.Y.F.j.Y Z.~ ( /.`.| F  +( + [ u.%.* g s &.S .+[ ; ++@+[.#+w.v $+%+    ",
"    &+l *+=+-+E ;+>+,+'+~.G.'+ +J.)+| # !+6.9 _ + /.$ ~+( : _ w.&.&.%.0.0 %.%.9.[.x {+]+    ",
"  ^+/+(+E i.r.C.) _+:+<+J.k.[+H . H H ~ }+|+% ( &.7.r :.1+/./.< ^ 9.* S 2+3+{+3+4+1.5+6+7+  ",
"  8+9+0+D.a+b+(+E c+g.g.9 r J.8 '+7 d+q + p e++ j.f+g+@ p p a _.| :.n h+i+- 0.0.j+^ [.1.k+  ",
"  l t.t._+l+*+s.m+! f.e.+ . H.!.}+n+ +~ g+%  +o+ .}+|+p+}+q+r+| _.* : v x 3+*.0.m._.v s+t+  ",
"u+l v+t.w+*+(+(+-+4.% x+k.y+! '+z+A+q p G.h.B+F.J.H C+:.* %.w q+J S m.O D+*.E+*.* [.F+1.G+H+",
"I+J+K+*+w+9+i.g.X L+M+!.N+_+4.n+@ g O+P+_+X.@ p  +~ e &.w : : /.: - e ; L L.w.- Q+#+n.L.m.R+",
"S+W B.D 9+T.4.) T+U+v+!.M+V++.r W+O+n+O+d+r H.@ g b e e `.Z./.* < e w %.L.w f $ w.w.*.X+Y+Z+",
"S.*+l B.t.m+t.r.(+i.X.N+|+a d+! }+I.`+ @[+N+`.n  @8  +p 1+:.< @ &.< [ < w .@( /.+@^ 5+@@#@s+",
"$@$@J+K+9+B.) i.) %@W.H |+i.4.J.4.q g+r.. `.H 8 d+X p &@9 r |+e : ( 7.< 9 /.S v v m.x x *@=@",
"-@;@>@,@D.) z+B+h...j.V+g.!.H '@8 4.4.)@q % E X.G.}+r 9 9 : :.~ !@% b S `.q+N ; $ _.~@1.h {@",
"]@^@>@B./@X.i.n+~.-+Y.g.(@n+j.V+X . u.8 j.'+_@:@_+O+X 9 r j.'+g+<@&.^._.[.O _.[@_.3+}@Q x k+",
"|@^@1@i.T.2@Y.(+B.6 ! G.3@W.E 4@@  +d+! 5@. X  +G.X.p 8 7 g+1+/./.o 6@L v &._.w.l.I M ~@@+@@",
"7@>@l+8@2@9@v+(+h.G.I.O+<+. 8 0@_+) h.J.[+8 O+n+7 X n+ +'+`.S @ S * $ : &._ a@_.b@c@5+.+d@e@",
"f@g@h@i@j@D t.E N+!.Y.! F.! k@C.i.! !.j.X l@ @7 F.m@)@|+n b r 5.$ w $ S /.&.$ - L._.v n@o@p@",
"q@J+i@S.S.a+D.r@a+9@%@!._+s@t@C.g.N+ +m@ + +m+i.5@u@@ ..% g e w &.a 6.e s n.O n w n.x A n@v@",
"^@q@$@h@l+h@D.w+w@0@j.s.x@y@z@A@h.E I.'+k@T.B@[+C@D@A+E@S q+w._ < w.F@w - w q+; [.^ {+G@[.{@",
"H@g@*+I@0+(+J@4.e.K@L@M@N@O@O@P@2@! X.a+Y.'+! Q@,+R@S@/.!@T@b U@~ V@_.W@X@O {+{+_.^ q+9.n@Y@",
"Z@,@`@i@C.(+ .h. #.#+#O@O@@###$#%#m+2@W.g.7 &#2@*#:. +*#@ 9 =#p * ^ S O ^ &.P %.S S 9.x #@-#",
"  ;#i@2@B.N+i.>#,#O@O@O@'#L@4.) l+) r.4.n+i.2@W. +'+n+u@}+)#7.!#* ~#_.| S S n `._ s _.0.{#  ",
"  ]#^#l /#(#_#:#O@O@<#[#w@B+}#B.9@t._+-+! |# +-+X.7 p 1#2#b 7.S X@3#`.(.#.K.c 4#q+5#x 3+6#  ",
"  7#,@S.8#9#O@O@0#a#b#t.=+8@l+l+m+i.C.G.. O+A+,+*#@  +8 r :.e w._ < s + /.9 V@m.M.1 w c#    ",
"    d#e#O@O@O@f#g#h#1@l m 9+9+D.9@r.n+)@i#_+j#q }+j.8 )++ e < k#: /.~+:.+ %.^ | w.w.6+l#    ",
"    m#n#O@o#p#q#i@r#s#/#i@(+U+T.r.E Y.h.X.8 p @ }+H !@p /.9 b p |+g+|+r w %.:.F@O v@#@t#    ",
"      u#v#w#,@S.,@S.r#*+9+i@x#m+D.D.C.N+H O+H 4.@ &@|+}+H |+'+J.d+. e ( `.c &.[.X+X+y#      ",
"        z#^#s#^#A.*+S.j@A#t.N+i.i.T+d+_+W.W.7 '+H R@B# +)#H C#*#p / D#E#q w._.w l.F#        ",
"        G#H#I#J#Z@K#A#8@Y.L#M#2@_+X Y.Y.B+4.N#'+:@!.;+!.p  +C@r r ~ 9 :.7.e * w.k+O#        ",
"          P#Q#R#D l S+8@S#w+8@W.t.9@m+N+B+_+,+!.h.g.O+ +}+@ . b d+9 e+^._ c D#T#t#          ",
"            U#V#$@h#J#s#A#l+B.*+J@h.g.W#F.!.>+m+'+G.7 J.+ r +.|+9 < /./.X#`.~@Y#            ",
"              Z#`#S. $J#(+(+J@J#t..$B+W.h.D.Y.'+g.+$ + @@ p s _ _ 1+H K.@$#$$$              ",
"                %$&$B.(+J#B.l+2@) B+a+) ,+n+) !.O+4.*#@ 9 H b ~ *$u@F@w.e@=$                ",
"                    ,@J#B.a+m+B+T.D.w@E 9@T+`+W.n+j.H |+*#|+-$|+u@.@F+;$                    ",
"                      >$M#t.,$w+=+x#D.D.E '$) ,+|++. +q O+'+g+& )$!$~$                      ",
"                          w+C.(+h@(+C.a+W.N+. < j.g+. n+H s 2 {$]$                          ",
"                                ^$e.r./$p /.* r = $.($_$;$:$                                "};
