/* XPM */
static char * knob_img_small_xpm[] = {
"32 32 251 2",
"  	c None",
". 	c #918880",
"+ 	c #ACA49B",
"@ 	c #A9A198",
"# 	c #ABA29A",
"$ 	c #A79E95",
"% 	c #A29A91",
"& 	c #A0988F",
"* 	c #A59D95",
"= 	c #A59C94",
"- 	c #9F968E",
"; 	c #9B9289",
"> 	c #988F86",
", 	c #B6AEA6",
"' 	c #A9A199",
") 	c #A49B93",
"! 	c #A79F97",
"~ 	c #A79E96",
"{ 	c #9E958D",
"] 	c #9D958D",
"^ 	c #A0978F",
"/ 	c #A39A92",
"( 	c #A29991",
"_ 	c #999088",
": 	c #A1988F",
"< 	c #A49B92",
"[ 	c #BCB4AC",
"} 	c #ADA49C",
"| 	c #A19991",
"1 	c #A19992",
"2 	c #A19890",
"3 	c #9E958E",
"4 	c #A69E96",
"5 	c #A29990",
"6 	c #ABA299",
"7 	c #A49C95",
"8 	c #A9A098",
"9 	c #A49C94",
"0 	c #A79F96",
"a 	c #A09790",
"b 	c #A49C93",
"c 	c #A69E95",
"d 	c #A89F97",
"e 	c #A9A097",
"f 	c #A69D95",
"g 	c #A39A91",
"h 	c #999188",
"i 	c #C1B7AF",
"j 	c #BAB1A9",
"k 	c #B1A8A0",
"l 	c #B1A9A0",
"m 	c #AAA198",
"n 	c #A49B94",
"o 	c #ABA39A",
"p 	c #B0A89F",
"q 	c #A39A93",
"r 	c #9D958C",
"s 	c #9C938B",
"t 	c #9A9188",
"u 	c #BDB4AC",
"v 	c #BCB3AA",
"w 	c #B6ADA5",
"x 	c #AEA59C",
"y 	c #AFA69D",
"z 	c #ADA49B",
"A 	c #AEA59E",
"B 	c #AAA199",
"C 	c #A89F96",
"D 	c #A59C93",
"E 	c #9C948B",
"F 	c #988F87",
"G 	c #C7BEB5",
"H 	c #BAB1A8",
"I 	c #B1A89F",
"J 	c #B5ACA4",
"K 	c #B0A8A0",
"L 	c #B4ABA3",
"M 	c #AFA69E",
"N 	c #B2A9A0",
"O 	c #AAA19A",
"P 	c #ACA39B",
"Q 	c #AAA299",
"R 	c #9F978E",
"S 	c #A59C92",
"T 	c #999087",
"U 	c #9B928A",
"V 	c #AAA095",
"W 	c #B2A9A1",
"X 	c #B0A79E",
"Y 	c #B8B0A7",
"Z 	c #B3AAA2",
"` 	c #ADA59C",
" .	c #B6ACA4",
"..	c #ACA39A",
"+.	c #BFB6AF",
"@.	c #BCB4AB",
"#.	c #B7AEA6",
"$.	c #A8A097",
"%.	c #AFA79F",
"&.	c #B1A9A1",
"*.	c #B5ABA3",
"=.	c #AEA59B",
"-.	c #9D948C",
";.	c #9E958C",
">.	c #90877F",
",.	c #C0B7AE",
"'.	c #B4ACA3",
").	c #ACA39C",
"!.	c #B0A7A0",
"~.	c #B8AFA8",
"{.	c #B3AAA1",
"].	c #B7ADA4",
"^.	c #ADA39A",
"/.	c #B8AFA6",
"(.	c #A0978E",
"_.	c #9D948B",
":.	c #B8AFA7",
"<.	c #B6ADA6",
"[.	c #B2AAA2",
"}.	c #B5ACA5",
"|.	c #BAB2AA",
"1.	c #B6ADA3",
"2.	c #BBB2A9",
"3.	c #B1A79E",
"4.	c #A39991",
"5.	c #989087",
"6.	c #B9B0A8",
"7.	c #B9B0A7",
"8.	c #C0B7AF",
"9.	c #BEB5AD",
"0.	c #B6ADA4",
"a.	c #B4ABA2",
"b.	c #B0A79F",
"c.	c #9F968D",
"d.	c #999086",
"e.	c #9B9288",
"f.	c #C3BAB1",
"g.	c #C5BCB4",
"h.	c #BCB3AB",
"i.	c #AEA59D",
"j.	c #B5ADA4",
"k.	c #A89E95",
"l.	c #A19990",
"m.	c #A59B93",
"n.	c #A69D94",
"o.	c #BEB5AC",
"p.	c #BBB2AA",
"q.	c #B7AEA5",
"r.	c #B2A9A2",
"s.	c #ACA399",
"t.	c #A39B93",
"u.	c #9F978D",
"v.	c #B5ACA3",
"w.	c #A39B92",
"x.	c #9A9088",
"y.	c #9C938A",
"z.	c #9B938A",
"A.	c #9E948B",
"B.	c #BFB6AE",
"C.	c #C3BAB2",
"D.	c #C2B9B1",
"E.	c #B6AEA5",
"F.	c #AFA79E",
"G.	c #AEA69D",
"H.	c #B4AAA2",
"I.	c #958C84",
"J.	c #B4ABA4",
"K.	c #B4ACA4",
"L.	c #ACA49C",
"M.	c #BFB6AD",
"N.	c #A49A92",
"O.	c #B0A69D",
"P.	c #B9AFA6",
"Q.	c #AFA59D",
"R.	c #ACA29A",
"S.	c #A29992",
"T.	c #BDB4AB",
"U.	c #C1B8B0",
"V.	c #B7AFA6",
"W.	c #BBB3AD",
"X.	c #A29EB8",
"Y.	c #B2A89F",
"Z.	c #C1B7AE",
"`.	c #AFA59C",
" +	c #978E86",
".+	c #C8BFB6",
"++	c #9592B0",
"@+	c #2134E5",
"#+	c #0B23F9",
"$+	c #9E9BBD",
"%+	c #BBB1A8",
"&+	c #A29890",
"*+	c #A0978D",
"=+	c #BAB0A8",
"-+	c #B1ACB6",
";+	c #4550D2",
">+	c #011BFC",
",+	c #001AFF",
"'+	c #626BD9",
")+	c #BDB3AA",
"!+	c #9F958C",
"~+	c #968D82",
"{+	c #B9B2B3",
"]+	c #6D72C4",
"^+	c #0B22F3",
"/+	c #1026F3",
"(+	c #7E81C5",
"_+	c #BFB7AF",
":+	c #C2B8AF",
"<+	c #021BFA",
"[+	c #011AFE",
"}+	c #4451DC",
"|+	c #B2ABB3",
"1+	c #BCB2A9",
"2+	c #B4AAA1",
"3+	c #ACA299",
"4+	c #B2A99F",
"5+	c #2134EC",
"6+	c #9797C3",
"7+	c #C7BEB6",
"8+	c #A39990",
"9+	c #A59D94",
"0+	c #1529E5",
"a+	c #B9B1AF",
"b+	c #C6BDB5",
"c+	c #BFB5AD",
"d+	c #B9B0A6",
"e+	c #A39A90",
"f+	c #A2998F",
"g+	c #D0C8BF",
"h+	c #CBC2BA",
"i+	c #C8C0B8",
"j+	c #C4BBB3",
"k+	c #ABA198",
"l+	c #AAA097",
"m+	c #CCC4BC",
"n+	c #C5BCB3",
"o+	c #B5ABA2",
"p+	c #B3A9A0",
"q+	c #CBC2B9",
"r+	c #CCC3BA",
"s+	c #C1B9B0",
"t+	c #B2AAA1",
"u+	c #B8AEA6",
"v+	c #BCB2AA",
"w+	c #C4BAB0",
"x+	c #BBB3AB",
"y+	c #C0B7AD",
"z+	c #BCB3A9",
"A+	c #B9B0A9",
"B+	c #BAB0A7",
"                    . + @ # $ % & * = - ; >                     ",
"                , ' ) ! ~ { ] ^ ~ / ( / _ { : <                 ",
"            [ ' } | ^ 1 2 3 4 $ 5 < ( / 6 = ( = ( 1             ",
"          7 8 9 0 + | a b = c ^ 5 d e < ( f ) { c g h           ",
"        i j k l m 2 n 9 o $ | 8 p 8 % q ~ r 5 g s ) { t         ",
"      u v w l x y z A $ ^ f A m ~ B # = ; C g D g E < 0 F       ",
"    G H I J K L M N z g O P Q B d e R ~ e f e S g g T U s V     ",
"    W X Y Z 6 M W ` W  ...M ..# ) ' ..C z ..c 0 2 _ / < : ;     ",
"  j +.@.#.$.# %.&.#.*.N 8 # B # l M =.X ..z $ s -.: D / ;.T >.  ",
"  ,.'.W ).` !.~.L {.].y ^.x {./.H w x z z / ;.-.(.(.) h > _.;.  ",
"I :.<.[.}.k |.!.:.1.....x 2.v w x y 3.< 4.5 - 5 < D 5.: (.T F < ",
"#.6.7.8.9.:.j 0.z 8 X 0.X a.P } b.C e / 2 D ~ 6 b - < c.{ d.(.e.",
"f.u g.h.w #.Q B Z L L 6.a.i.j.i.) P P x k.~ C l...m.2 ^ { ;.n.C ",
"8.o.h.p.a.@ W j W {.b...q.q.C C + N r.z s.m # z n.( f t.= e f u.",
"/.o.0.M } h.6.b.v.k I H N 8 X :.#.'.y m ~ C ) D $ e B B g k._.(.",
"v a.{.9.j }.v.I X q.} ..I } W v.v.:.N {.e 6 X {.P 6 w.$.x.y.z.A.",
"B.C.D.@.Z J E.p.k M y F.w q.i.L N {.q.m G.H.^.m f C t.] I.(.;.-.",
"D.o.j.J.a.K.k b.L.K.M.2.N k b.W q.H.v.0.3.{.N.= y & ^ & 5 < n.(.",
"u H :.|.:.q.#.6.u B.q.w p L q.O.*.H P.Q.R.f Q e S.;.2 (.n.< 5 s ",
"T.U.U.:.:.V.W.X.U.j 6.N 7.I Y.Z.T.H.`.`.G...= ) R % C ) n.-. +-.",
".+D.L i.[ ++@+#+$+v j #.L H i %+W X *.N C < &+c.~ 5 g g _ { *+: ",
"=+&.w -+;+>+,+,+'+D./.7.f.2.v.v.)+H =.6 e k.m C $ e !+-.& s T ~+",
"  {+]+^+,+,+/+(+_+v.M.8.7.H 0.:+M.z m N N X C ..D - < _.U 2 <   ",
"  <+,+,+[+}+|+0.8.g.B.u Z H 1+o.w 2+w *.3+N 4+) | c.; & % l.<   ",
"    ,+5+6+8.M.7+8.M.M.p.T.I B Y.T./.X 6 v.6 ~ 2 5 8+9+g / ..    ",
"    0+a+U.7+b+g.G c+:+T.k b.0.].d+6 N x } B g e+f+m.( d d k.    ",
"      g+h+i+7+j+9.U.6.q.a.P.w x # N y b.$ k+e+~ ~ m l+e (.      ",
"        m+b+n+U.C.B.,.B.o.o+y x M b.e `.m z o X y `.i.p+        ",
"          q+r+s+p.B.B.h.t+0.I Z W y `.N I y {.z p+y 6           ",
"            7.2.f.M.a.*.p.6.j v.q.I u+J :.z } 1.l+v+            ",
"                w+N x+y+T.p.:.q. .6.j v.M X {.x                 ",
"                    z+h.7.=+7.A+u 7.p 7.J B+                    "};
