/* XPM */
static char * knob_img_large_xpm[] = {
"62 62 684 2",
"  	c None",
". 	c #ABA39A",
"+ 	c #A29B95",
"@ 	c #AEA59D",
"# 	c #B0A79F",
"$ 	c #989087",
"% 	c #AFA7A0",
"& 	c #A79E95",
"* 	c #A89F96",
"= 	c #A19891",
"- 	c #9C938B",
"; 	c #908881",
"> 	c #958C85",
", 	c #8C847D",
"' 	c #817772",
") 	c #C2B8B1",
"! 	c #B9AFA8",
"~ 	c #B2A8A0",
"{ 	c #ADA59D",
"] 	c #A89F97",
"^ 	c #9A928A",
"/ 	c #968D86",
"( 	c #958D84",
"_ 	c #A9A099",
": 	c #A9A098",
"< 	c #AAA198",
"[ 	c #A69D93",
"} 	c #A29A92",
"| 	c #A29990",
"1 	c #958C84",
"2 	c #928A82",
"3 	c #7C756F",
"4 	c #6E6661",
"5 	c #C9C1B8",
"6 	c #BDB4AC",
"7 	c #B5ACA4",
"8 	c #ADA49C",
"9 	c #A59C93",
"0 	c #A09890",
"a 	c #948B84",
"b 	c #9D958D",
"c 	c #A29A91",
"d 	c #A59C94",
"e 	c #A0988F",
"f 	c #A49C93",
"g 	c #A49B92",
"h 	c #9E968E",
"i 	c #A19991",
"j 	c #A39A92",
"k 	c #9B928A",
"l 	c #8C847E",
"m 	c #7D756F",
"n 	c #C5BCB5",
"o 	c #C3BAB2",
"p 	c #B3AAA2",
"q 	c #AEA59C",
"r 	c #ACA49B",
"s 	c #9F978F",
"t 	c #958D85",
"u 	c #9B938B",
"v 	c #A59C92",
"w 	c #A79F96",
"x 	c #A79F95",
"y 	c #A79E94",
"z 	c #A69D95",
"A 	c #A0978F",
"B 	c #9E958B",
"C 	c #988F86",
"D 	c #A19890",
"E 	c #9A9189",
"F 	c #9A918A",
"G 	c #8B837B",
"H 	c #837B74",
"I 	c #918981",
"J 	c #7E7570",
"K 	c #DDD6CD",
"L 	c #D3CDC5",
"M 	c #B5ADA5",
"N 	c #ABA29A",
"O 	c #ACA39B",
"P 	c #ACA29A",
"Q 	c #A49B93",
"R 	c #9F968F",
"S 	c #A79E97",
"T 	c #ABA39B",
"U 	c #ABA299",
"V 	c #AFA69E",
"W 	c #9D948C",
"X 	c #A1988F",
"Y 	c #A79E96",
"Z 	c #9D948B",
"` 	c #9E958D",
" .	c #928981",
"..	c #968D85",
"+.	c #8D847D",
"@.	c #918982",
"#.	c #9C938A",
"$.	c #8F867E",
"%.	c #827A73",
"&.	c #878078",
"*.	c #C4BBB3",
"=.	c #C7BDB5",
"-.	c #B6AEA6",
";.	c #9F968E",
">.	c #AAA299",
",.	c #A89E97",
"'.	c #9D958C",
").	c #978E85",
"!.	c #9A9188",
"~.	c #8F867F",
"{.	c #9A9289",
"].	c #968E85",
"^.	c #978E86",
"/.	c #7B736C",
"(.	c #E3DDD6",
"_.	c #CFC7BE",
":.	c #C0B7AE",
"<.	c #B4ACA4",
"[.	c #ACA39A",
"}.	c #A59D95",
"|.	c #ACA49C",
"1.	c #B1A89F",
"2.	c #AEA59B",
"3.	c #A69E95",
"4.	c #9C948C",
"5.	c #A39B93",
"6.	c #A19990",
"7.	c #A0978E",
"8.	c #99918A",
"9.	c #988F87",
"0.	c #999088",
"a.	c #999188",
"b.	c #9B9289",
"c.	c #928982",
"d.	c #A8A097",
"e.	c #978F86",
"f.	c #867D77",
"g.	c #7A726C",
"h.	c #E5E1DA",
"i.	c #CFC7BF",
"j.	c #B9B0A8",
"k.	c #B2A9A0",
"l.	c #A39A93",
"m.	c #B4ABA2",
"n.	c #AAA199",
"o.	c #A9A198",
"p.	c #B1A9A0",
"q.	c #A29991",
"r.	c #A49C94",
"s.	c #A49B94",
"t.	c #A39B92",
"u.	c #A39A91",
"v.	c #9F978E",
"w.	c #A2998F",
"x.	c #999087",
"y.	c #999089",
"z.	c #9E958C",
"A.	c #948B83",
"B.	c #857D75",
"C.	c #E1DED6",
"D.	c #C9C3BB",
"E.	c #B5ACA3",
"F.	c #ABA199",
"G.	c #A29A90",
"H.	c #A29992",
"I.	c #9C948D",
"J.	c #B1A8A0",
"K.	c #AEA69E",
"L.	c #9C938C",
"M.	c #A39B91",
"N.	c #9F968D",
"O.	c #A09790",
"P.	c #A1978F",
"Q.	c #918880",
"R.	c #8E867F",
"S.	c #898078",
"T.	c #807871",
"U.	c #C6BCB5",
"V.	c #BFB7AF",
"W.	c #B9B0A7",
"X.	c #B8AFA6",
"Y.	c #B0A79E",
"Z.	c #B3ABA3",
"`.	c #AEA59E",
" +	c #B2A9A1",
".+	c #A9A097",
"++	c #AAA197",
"@+	c #A59D94",
"#+	c #8F877F",
"$+	c #948C85",
"%+	c #7C746E",
"&+	c #E8E7E1",
"*+	c #CCC4BB",
"=+	c #B8B0A7",
"-+	c #A9A199",
";+	c #AAA29A",
">+	c #BCB3AB",
",+	c #B4ACA3",
"'+	c #B7AEA6",
")+	c #A69E96",
"!+	c #A49C95",
"~+	c #AEA69D",
"{+	c #9B938A",
"]+	c #938A83",
"^+	c #A79D95",
"/+	c #988F88",
"(+	c #8A817B",
"_+	c #EBE9E5",
":+	c #C5BEB7",
"<+	c #B0A8A0",
"[+	c #B7AEA7",
"}+	c #BDB4AB",
"|+	c #BCB3A9",
"1+	c #BEB6AD",
"2+	c #AFA79F",
"3+	c #9E968D",
"4+	c #A29890",
"5+	c #908880",
"6+	c #635C55",
"7+	c #C5BDB4",
"8+	c #B4ABA3",
"9+	c #BFB6AE",
"0+	c #C2B9B0",
"a+	c #BBB2A9",
"b+	c #C6BDB4",
"c+	c #BFB6AD",
"d+	c #A79F97",
"e+	c #A39A90",
"f+	c #A69D94",
"g+	c #A89E96",
"h+	c #9C948B",
"i+	c #978E87",
"j+	c #827972",
"k+	c #CEC8C1",
"l+	c #BCB3AC",
"m+	c #BCB3AA",
"n+	c #C0B7B0",
"o+	c #C1B8B0",
"p+	c #BDB5AD",
"q+	c #ADA59C",
"r+	c #9A928B",
"s+	c #938B83",
"t+	c #908780",
"u+	c #7E766F",
"v+	c #F1EFEC",
"w+	c #D0C8C1",
"x+	c #C8BFB7",
"y+	c #C5BCB3",
"z+	c #BDB4AE",
"A+	c #B6ADA4",
"B+	c #B8B0A8",
"C+	c #B6ADA5",
"D+	c #ABA399",
"E+	c #A69D96",
"F+	c #989088",
"G+	c #8B827C",
"H+	c #8F8780",
"I+	c #716962",
"J+	c #D1CAC4",
"K+	c #CCC4BC",
"L+	c #CAC1B8",
"M+	c #C8BFB6",
"N+	c #C2B9B1",
"O+	c #BBB2A8",
"P+	c #B1A9A1",
"Q+	c #B8AFA7",
"R+	c #9E958E",
"S+	c #B7AEA5",
"T+	c #B1A7A0",
"U+	c #998F85",
"V+	c #877F77",
"W+	c #E2DFD8",
"X+	c #D0C8BF",
"Y+	c #C9C0B7",
"Z+	c #C9C0B8",
"`+	c #C3BAB1",
" @	c #BCB2A9",
".@	c #BEB5AD",
"+@	c #BCB2AA",
"@@	c #AFA69D",
"#@	c #B2A9A2",
"$@	c #A8A098",
"%@	c #ABA29B",
"&@	c #A49B91",
"*@	c #9F968C",
"=@	c #938B84",
"-@	c #978D84",
";@	c #C0B8AF",
">@	c #BEB5AC",
",@	c #C3B9B1",
"'@	c #BAB1A9",
")@	c #BBB2AA",
"!@	c #B3AAA1",
"~@	c #B7AFA7",
"{@	c #B3ABA2",
"]@	c #ADA49D",
"^@	c #AFA79E",
"/@	c #A59D93",
"(@	c #948B82",
"_@	c #A39990",
":@	c #968D84",
"<@	c #968E86",
"[@	c #8D857D",
"}@	c #E0DBD3",
"|@	c #CCC3BB",
"1@	c #C3BBB2",
"2@	c #B9B1A9",
"3@	c #C5BCB4",
"4@	c #B0A89F",
"5@	c #ADA49B",
"6@	c #938A81",
"7@	c #958C83",
"8@	c #938B82",
"9@	c #8A817A",
"0@	c #746D66",
"a@	c #D1C9C0",
"b@	c #B7AFA6",
"c@	c #BAB2A9",
"d@	c #B2AAA2",
"e@	c #B6ACA4",
"f@	c #ACA299",
"g@	c #AAA298",
"h@	c #9B9189",
"i@	c #A1988E",
"j@	c #9C928A",
"k@	c #918980",
"l@	c #938A82",
"m@	c #8E867E",
"n@	c #D8D0C8",
"o@	c #CAC1B9",
"p@	c #C4BCB3",
"q@	c #C0B7AF",
"r@	c #C6BDB5",
"s@	c #C4BBB2",
"t@	c #B3ABA4",
"u@	c #B6ACA3",
"v@	c #AFA59C",
"w@	c #9E948C",
"x@	c #998F88",
"y@	c #A39991",
"z@	c #8C837B",
"A@	c #989086",
"B@	c #7A726B",
"C@	c #8E8781",
"D@	c #D3CBC2",
"E@	c #C7BEB6",
"F@	c #CDC4BB",
"G@	c #AFA69F",
"H@	c #ADA59E",
"I@	c #B0A79D",
"J@	c #B2A89F",
"K@	c #ADA39A",
"L@	c #AFA59D",
"M@	c #B4ABA1",
"N@	c #B4ACA2",
"O@	c #B8AEA6",
"P@	c #AEA49B",
"Q@	c #A1978E",
"R@	c #877E76",
"S@	c #807771",
"T@	c #948C84",
"U@	c #756D67",
"V@	c #D0C7BF",
"W@	c #C5BBB4",
"X@	c #C6BEB6",
"Y@	c #B4ACA5",
"Z@	c #B9B1AA",
"`@	c #BAB0A6",
" #	c #B5ABA2",
".#	c #BEB4AB",
"+#	c #BBB3AA",
"@#	c #B1A89E",
"##	c #9F958D",
"$#	c #A49A91",
"%#	c #91887F",
"&#	c #8E857D",
"*#	c #D6CFC7",
"=#	c #CBC2B9",
"-#	c #C8BEB6",
";#	c #BEB6AE",
">#	c #B5ACA5",
",#	c #B9B0A9",
"'#	c #BAB1A8",
")#	c #9A9187",
"!#	c #9A9088",
"~#	c #8D847C",
"{#	c #D1C9C1",
"]#	c #C9C1BA",
"^#	c #C8C0B8",
"/#	c #C2BAB1",
"(#	c #C1B9B1",
"_#	c #ADA59B",
":#	c #9B928B",
"<#	c #A59B93",
"[#	c #948C82",
"}#	c #928980",
"|#	c #847B74",
"1#	c #635B55",
"2#	c #CBC2BA",
"3#	c #CAC2B9",
"4#	c #B6AEA5",
"5#	c #BAB1A7",
"6#	c #A59B92",
"7#	c #9D948A",
"8#	c #9F958C",
"9#	c #7F766F",
"0#	c #8A827B",
"a#	c #807872",
"b#	c #CEC6BE",
"c#	c #CAC1BA",
"d#	c #B8AFA8",
"e#	c #BBB3AB",
"f#	c #ACA39C",
"g#	c #AAA098",
"h#	c #ABA297",
"i#	c #90877E",
"j#	c #867E76",
"k#	c #887F78",
"l#	c #C7BEB5",
"m#	c #C6BDB6",
"n#	c #C0B6AE",
"o#	c #ABA198",
"p#	c #9B9288",
"q#	c #958B83",
"r#	c #837B73",
"s#	c #847B72",
"t#	c #D0C7BE",
"u#	c #CEC6BD",
"v#	c #CFC6BD",
"w#	c #B5ADA4",
"x#	c #B9AFA7",
"y#	c #AEA49C",
"z#	c #ADA39B",
"A#	c #A79D94",
"B#	c #A99F96",
"C#	c #9C948A",
"D#	c #8B837C",
"E#	c #857D76",
"F#	c #D8D0C7",
"G#	c #CCC3BA",
"H#	c #BAB1AA",
"I#	c #B1A99F",
"J#	c #B4AAA2",
"K#	c #B0A69E",
"L#	c #978F87",
"M#	c #998F87",
"N#	c #7A716B",
"O#	c #D2CAC1",
"P#	c #BEB4AC",
"Q#	c #BAB2AA",
"R#	c #BBB1A9",
"S#	c #928881",
"T#	c #9A9087",
"U#	c #90877F",
"V#	c #847C74",
"W#	c #DBD5CD",
"X#	c #D5CCC4",
"Y#	c #C0B8B0",
"Z#	c #BBB1A8",
"`#	c #B1A79E",
" $	c #8C847C",
".$	c #D3CCC3",
"+$	c #D2CAC2",
"@$	c #D3CAC2",
"#$	c #BDB3AB",
"$$	c #C1B8AF",
"%$	c #B2A99F",
"&$	c #B8AFA5",
"*$	c #ACA399",
"=$	c #A2988F",
"-$	c #A0968D",
";$	c #8E857C",
">$	c #776F68",
",$	c #D5CEC5",
"'$	c #D2C9C1",
")$	c #C6BEB5",
"!$	c #C3B9B0",
"~$	c #C1B8AE",
"{$	c #BBB2AB",
"]$	c #AAA19A",
"^$	c #8B827A",
"/$	c #716963",
"($	c #D7D1C9",
"_$	c #CBC3BB",
":$	c #C9C1B9",
"<$	c #C7BFB7",
"[$	c #CDC4BC",
"}$	c #BDB4AA",
"|$	c #B3A9A0",
"1$	c #BAB0A8",
"2$	c #A1978D",
"3$	c #8B837A",
"4$	c #7C736C",
"5$	c #D0C9C0",
"6$	c #CAC2BA",
"7$	c #CFC6BE",
"8$	c #C1B7AF",
"9$	c #A0968E",
"0$	c #C2B8AF",
"a$	c #9292C7",
"b$	c #C2BAB5",
"c$	c #C7BDB4",
"d$	c #B0A69D",
"e$	c #988E86",
"f$	c #7F776F",
"g$	c #DDD6CE",
"h$	c #CEC5BD",
"i$	c #C4BCB4",
"j$	c #A29EBE",
"k$	c #3243ED",
"l$	c #001AFF",
"m$	c #636BD9",
"n$	c #BCB4AC",
"o$	c #C6BCB4",
"p$	c #B5ABA3",
"q$	c #B9AFA6",
"r$	c #958D83",
"s$	c #978D85",
"t$	c #5E5751",
"u$	c #D1CAC1",
"v$	c #C5BDB5",
"w$	c #C2B9B2",
"x$	c #B7AFB3",
"y$	c #5660DB",
"z$	c #041DFE",
"A$	c #172BEF",
"B$	c #C6BFB7",
"C$	c #C2B8B0",
"D$	c #BAB0A7",
"E$	c #A89F95",
"F$	c #79716A",
"G$	c #CBC3BA",
"H$	c #C3BBB3",
"I$	c #7C7FCB",
"J$	c #142AF7",
"K$	c #001AFE",
"L$	c #3644D7",
"M$	c #AEAABD",
"N$	c #C5BBB2",
"O$	c #ACA398",
"P$	c #AAA097",
"Q$	c #9D938C",
"R$	c #9D948D",
"S$	c #948C83",
"T$	c #8E867D",
"U$	c #7F7770",
"V$	c #D2CBC3",
"W$	c #CBC2B8",
"X$	c #A3A0C0",
"Y$	c #3041EB",
"Z$	c #1329F3",
"`$	c #8183C3",
" %	c #C1B9B0",
".%	c #B3AAA3",
"+%	c #B8AEA5",
"@%	c #A69C93",
"#%	c #726C67",
"$%	c #DDD7CD",
"%%	c #BFB6AF",
"&%	c #C0B7AD",
"*%	c #BCB4B8",
"=%	c #5B64DE",
"-%	c #031CFD",
";%	c #5761DC",
">%	c #BDB6B8",
",%	c #B9B1A8",
"'%	c #B4AAA1",
")%	c #9D938A",
"!%	c #A9A096",
"~%	c #A49A92",
"{%	c #5B5451",
"]%	c #D7D0C7",
"^%	c #D0C8C0",
"/%	c #7F82CC",
"(%	c #152AF7",
"_%	c #3142EC",
":%	c #A9A6C7",
"<%	c #D8D2C9",
"[%	c #CBC2BB",
"}%	c #C2BAB2",
"|%	c #A7A3C2",
"1%	c #3444ED",
"2%	c #142AF8",
"3%	c #8285D1",
"4%	c #B6ACA2",
"5%	c #B9B0A6",
"6%	c #6B645F",
"7%	c #BFB8BD",
"8%	c #5D66E0",
"9%	c #041DFD",
"0%	c #5C66E2",
"a%	c #CAC5CA",
"b%	c #ACA29B",
"c%	c #A69C94",
"d%	c #A29891",
"e%	c #9B9389",
"f%	c #A39DA7",
"g%	c #8588D5",
"h%	c #162BF7",
"i%	c #3343EF",
"j%	c #ACA9CA",
"k%	c #B7ADA5",
"l%	c #BDB3AA",
"m%	c #999189",
"n%	c #8C837C",
"o%	c #817972",
"p%	c #766F69",
"q%	c #041DF6",
"r%	c #152BF9",
"s%	c #8589D6",
"t%	c #8F857E",
"u%	c #877E77",
"v%	c #1C2BCB",
"w%	c #081FF7",
"x%	c #6773F3",
"y%	c #D2CFD6",
"z%	c #C1B7AE",
"A%	c #AFA59B",
"B%	c #877F78",
"C%	c #483F3B",
"D%	c #C5C3D2",
"E%	c #E4E0DC",
"F%	c #CBC1B9",
"G%	c #928A81",
"H%	c #746C66",
"I%	c #C8C1B9",
"J%	c #C7BFB6",
"K%	c #CEC5BC",
"L%	c #ADA49A",
"M%	c #A49C92",
"N%	c #D5CDC5",
"O%	c #D4CCC2",
"P%	c #D0C9C1",
"Q%	c #C5BBB3",
"R%	c #C4BAB1",
"S%	c #A0978D",
"T%	c #7D756E",
"U%	c #5D5750",
"V%	c #D9D3C9",
"W%	c #B2AAA1",
"X%	c #A89E94",
"Y%	c #817871",
"Z%	c #564F4B",
"`%	c #D5CDC4",
" &	c #CEC7BF",
".&	c #C8C0B7",
"+&	c #898179",
"@&	c #514A47",
"#&	c #C8BEB7",
"$&	c #CDC5BC",
"%&	c #D1C8BF",
"&&	c #BDB5AC",
"*&	c #6E6560",
"=&	c #E7E4DD",
"-&	c #A9A095",
";&	c #403934",
">&	c #E3DDD5",
",&	c #C0B8AE",
"'&	c #B2A99E",
")&	c #776F69",
"!&	c #3F3836",
"~&	c #B7AEA4",
"{&	c #B3A9A1",
"]&	c #888079",
"^&	c #6A625C",
"/&	c #C9C3B9",
"(&	c #C5BDB6",
"_&	c #BFB5AE",
":&	c #BFB5AD",
"<&	c #B8AEA4",
"[&	c #786F69",
"}&	c #49433E",
"|&	c #BEB5AB",
"1&	c #716964",
"2&	c #514A46",
"3&	c #6B635F",
"4&	c #4F4843",
"5&	c #BDB4AD",
"6&	c #AFA59E",
"7&	c #837A74",
"8&	c #4F4745",
"9&	c #88807A",
"0&	c #A39A94",
"a&	c #514A45",
"                                                . + @ # $ % & * = - ; > , '                                                 ",
"                                        ) ! ~ { # ] ^ / ( _ : < [ } ] | & 1 2 , 3 4                                         ",
"                                    5 6 7 8 9 & 0 a b c 9 d ] e c f g e h i j * k a l m                                     ",
"                                n o p q r & s t u v ] w x y z f A B C s D r : E F E G H I J                                 ",
"                            K L M N O P Q A R A S T U O V y = 0 W W X Y z Z i `  ...+.@.#.$.%.&.                            ",
"                          *.=.-.] q N X i ;.A ] y q >.] ,.D '.W v q < | C ^ ).$ !.~.{.].2 ^.A - /.                          ",
"                      (._.:.<.# [.: }.Y d |.. U 1.2.3.u - 4.5.6.9 7.8.9.0.a.D k ` e b.c.4.d.7.e.t f.g.                      ",
"                    h.i.j.k.] - } l.] m.k.n.o.p.] q.r.i s.r.t.0 W - - A u.v.w.| k x.y.Q D a.k z.y.A.B.m                     ",
"                  C.D.E.F.G.H.I.J.E.j.n.7 : { s.K.: : N . * c t.9 L.: M.e 7.` N.D | * d z.z.O.P.Q.R.1 S.T.                  ",
"                U.V.E.3.A i z W.X.Y.Z.Z.N i `. +] |.: O d.e t.- Y .+0 ;.#.k - - j | c ++b.@+N.#+$+..1 k ^.%+                ",
"              &+*+=+-+j ;+7 >+1.,+7 '+)+!+~+] z A O 3.^ 0 {+s : t.s.Q j Q ]+` t.D ^+q.W * A.y./+z.F 9.E x.R.(+              ",
"            _+:+<+N `.[+}+|+}+1+<.O R 2+# >.0 3+_ h 0 u ^ T f ;.9 4+j W A .+j | u.W 8 7.^.` v.N.A.x.C I  .Z 5+6+            ",
"            7+'+@ 8+9+0+a+b+c+1.@ |.d+] & A >.A 0 } i q.} O 9 e+Q u.f+8 .+& & = g+& z.j D ` E W h+> i+F ( F C j+            ",
"          k+V.l+6 6 m+n+o+p+@ ;+<+T . 0 U q+d.D r+r.3.< & i ;.q.c J.z w.g | z ++h+;.z * 3+W y w.9.W E C s+,  .t+u+          ",
"        v+w+x+y+o+9+o z+A+8+m.p B+7 ;+C+D+u.0 !+j * < .+s.j Q k.p.E+Q } h N W {+A 9 X F+& j C E b.A y.G+t+H+, ` b.I+        ",
"        J+K+L+:.M+N+a+W.O+P+X.6 Q+m+[.[.3.n.o.z : Y & R+D r S+w : n.'.T+] k 3+: z W q.f+b.b.t.7.C A.5+2 1 $ u.N.U+V+        ",
"      W+X+x+Y+Z+`+ @.@p >+j.6 +@ +2+J. +E.@ @@8+* s '.8 #@$@9 * * %@p.{.N.&@O z.f+.+*@b t.z Y b.=@/ E D b {+!.A.-@C /.      ",
"      X+Z+7+o+;@>@W.>+,@'@)@!@@@~@ +{@!@V # !@U u.E+]@U .+^@: 5.^@Q z.z < @+$@f+.+/@9 u.7.!.(@` ;._@N.!.2 :@^.<@(@x.[@      ",
"    }@|@1@.@2@>@>@3@)@>+>+1.k.8+'+r r 4@J.# 5@q m.1.* k.@ ++P+)+s u.N n..+U < .+9 * j z.6@R & | u.#.7@..!.8@A.1 7@$.9@0@    ",
"    a@M+'@0+.@*.:.'@=.a+M b@c@>+V * n.d@# [.7 C+e@O V : q [.g $@{ d@f@* q q g@d.q g h@W & & g j W i@` 1 1 j@k@;.9.9.l@m@    ",
"  n@o@p@o V.q@m+r@s@p+.@q@>+7 7 w ] @ @ t@~@ +E.u@Y.f+q+3.O . C+!@5@v@!@U 2.1.< w@x@y@- ` 9 Q ` z.(@z@A@!.).e.!.- i@:@B@C@  ",
"  D@E@6 o+C+2@F@1@.@o+:.p G@# _ {  +H@j.A+J.I@S+J@K@U L@q+M@N@'+O@j.5@P@5@Y.d Q@Z - ` X D Q u.^.( !.u.9.6@0.E e b.R@S@T@U@  ",
"  V@Z+`+o+Z+Y+W@0+X@q@6 C+J.]@7 d.Y@Z@E. +`@X. #@@Y q E.a+.#9++#@@n.1.@#w ##Q - ;.6.j 7.u.z.l@b $#X a l@%#N.| A.m@:@:@m@&#  ",
"  *#=#r@r@-#3@x+`+;#7 7 >#,#'@Z.'+'@M # m+E.5@& .+m.p '#X.S+q ] V  #P N.Y D ` j ;.u.f+< W ).f+w.F+).x.` u.^.)#C 1 x.z.!#~#  ",
"{#]#^#/#7+L+E@s@b@}+'+'+W.m+(#.@<.>+a+A+_#r z Y.p '+5@E.4@] 8  +@@u.n.& :#z u.U w @ f+k <#.+h+` D [#| X ).!.X - Z A.}#7@|#1#",
"X+*+;@Z+2#=.r@9+8+.@y+W.*.3#C+C+9+4#[..+: # '@# W.C+5#L@n.p 7 g ;.k.E+[.&@* l..+.+D D U ] k f {+k X E g * 9 6#*@7#8#~#9#0#a#",
"b#r@Z+c#E@`+>+c+/#N+6 o s@m.W.'@@@9 f p >@ +[.d#>+q < p e# #z.f#] V J.!@Y.g#V & | n.k.X q.c D < 7.A h#g .+f+7#;.x.i#j#k#}#9#",
"K+*+K+|@r@b+l#m#'@.@n#>+6 6 4#k.] q c+'@@ {@S+@@] V :.j.| 9 Y.8 @@m.8+5@o#U * ] ~ < g g f : & b .+.+* * p##.N.q#i+Q.1  .r#s#",
"t#u#b#v#o@Z+`+)@q@}+'#>@w#8+q o.Q+>@2@<+p x#5@[.C+c+!@z 1.Y.'#a+C+k.y#z#n.q.q 9 D A#u.9 8 Y N & 7.B#f+C#| E #.d x.6@A.D#$.E#",
"F#F@Z+_.G#o >+9+m.a+.@'+q 8 8+)@H#7 C+P@I#~+J#W.q N 4@: @ p '+7 8+P+E.* Y.K#u.^+@ 8 1.z O O c .+g z.{.L#` | ` M# .5+8@#+l@N#",
"*#{#O#u#/#E@P#'+9+j.m.J.m+*.)@Q#C+ +X.V # m+p g#J.P@V V C+M@J.C+R#X.Y.7 @ u.8 1.p 1.f@# A d n.- S#!.` N.T#8#N.:@^.a ].( U#V#",
"W#X#u#3#p@'#0+l#c@c+N+r@o+Y#'# +C+7 S+6 '+T Y.U ^@A+7 '#5@`.'+Y.!@A+Z#Y U 1.m.`#U [.] D 5@l.k ;.5+W f+).7.D a.R+#.e.5+ $7@j+",
".$+$@$o+#$=#p@E.s@9+o $$)@^@p.,+p ,+<.8 ] L@`.+@X.x#!@q {@m.8 x#! G@!@A+M@%$&$*$Y X  +.+b g :#e 9 _@=$++` N.-$( k@;$b.!.9@>$",
",$'$E@x+)$!$~$0+9+*.>@Q+<.{$C+7 <.# p '+]$9+o+1+a+p J.m.N 7 E.@ Y.X.E.Q+1.q @ 6.t.T ] 9 A :#Y ;.Z q | X 7.C 7@$.9.i@C ^$9@/$",
"($_$:$$$<$[$|@=#y+.@'@'#7 4#9+m.j.}$<+>+m+$$m+C+p e#. !@m+|$q O@R#'#1$J.@@f+@+O N ^+5.s #.w.#.z : ;.t.A #.:##.N.2$l@3$G 4$/.",
"5$2#o@6$Y+7$Z+b+8$)@Q+>+l#>+7 }+^@=+o c+o+)@'@'@m.5@}+X.U `#:.$$}+k.q 5@8 q J.] g f+Z D *@o.z 9$;+A 0...W [.Z N.6@2 t+z@(@G ",
",$'$[$Z+*+*.$$o *..@7$)$'+C+P+Y@p@0$N+a$b$W.+@Z.)@8+E.N '#`+c$C+K@v@d$A+1.[.D _@g N.X N d #.* f+#.e.b.u.Q | ).> D e$U#..:@f$",
"g$h$i.o@o p@i$o+6 x+)@:.4@Y >+o+o+j$k$l$m$n$}+>@R# +X.c+o$p p$X.m.1.q$m.K@u.f+f u.e Y D Q n.g 7#].u.7.h@Z 6@k E r$E x.s$^$t$",
"  u$v$i$)$9+c@o+E@1+E.]$C+w$X+x$y$z$l$l$A$B$o+7 1.C$`+c+m.j.p D$m+}+K@U * o.E$.+o#< X f@* =$x.W G.Z 0.^.(@b.b.A q.X E 7@F$  ",
"  Z+G$H$E@l#0+N+;@$@Q+/#2#X@I$J$l$l$K$L$M$c+w#>@*.:.w#j.Q+A+D$N$)@O$A#@@|$8 [.q e+P$5@f+Q$- 9 R$!.- ;.D z.W u.& ;.-@S$T$U$  ",
"  V$x+Y+:$a+n 6 8 0+Y+W$X$Y$l$l$l$Z$`$ %.%S+>+s@.@H#6 p '+:.b+A+E..+Y.M@J@+%@@5@Y.U h I.q.9$Z - D 9 .+z.i@@%g 7#X 0.^. .#%  ",
"  $%+$o@;@2#+#%%$$&%*%=%z$l$l$-%;%>%j.!@o+x+o j.o O@V j.`+k..@,%b@ #S+'#U * '%A+[.q.)+` Q@)%N.Q u.;.e+.+!%~%* f ` x.l@:@{%  ",
"    ]%^%:$o@2#6 o+/%(%l$l$l$_%:%Y#}+>@y+E@>+9+o+'@Q+q@S+d N K#/#S+W.m.!%@@|$`#<#Y g u.N.6#u.< W A n.[.u.g X 8#'.A.9.9.T.    ",
"    <%7+[%X@}%|%1%l$l$l$2%3%[%n#N+*.E@r@}+s@$$ @c+:.C+# 5@1.4%5%'#q U q 8+V F.O 9 7.| ;.B#Q 3+[.U & 3.o#e+)#a {+q.Z %#6%    ",
"      O#=#7%8%9%l$l$z$0%a%o }+l#=#r@o x+M+0+}+y+9+E.b% +m.W.D$'#U F.7 # [.Y.< A @%i@w.c%d%d [ g g 5@g 7.T@e%e ` N...U$      ",
"      f%g%h%l$l$l$i%j%F@y+V@v#2#E@)$Z+s@.@.@:.,#'+k%%$l%A+S+5@& p |$8 V 1.u.5@!%N.O Y S * ++< 8 { z W m%f+u.&@u.n%o%p%      ",
"        q%l$l$r%s%K+3#6$*+|@M+o@o@E@N+.@$$N+}+6 W.:.a+5%k.[.5@@@8 @@# v v@U u.8 d.< 5@K@# F.@@< u.- D A#y 6#9.t%7@u%        ",
"        v%w%x%y%'$o@_$o@5 G$7$r@*.b+l#7+s@o+z%o+N+.@>+@@Y.{@.  +p q B#A%N Y.k.: V S+ +5@ +8 Y ] g | * &@y@a }#C B%C%        ",
"          D%E%b#E@E@[$E@o@:$b+5 F%[$2#9+j.m+C$>+9+X.^@'#m.@@,+p q I@K@@#+%q q !@M@* J@E.: q.u.3.m.z#f+W l@9.#.G%H%          ",
"            I%b#h$x+_$J%*.x+K%=#K%H$O@'#q@$$>@1$*$7 >+>#$$c@k.S+!@L%X.'+J.X. #Y . '#o#[.Y u.g w q+Q #.| M%X {.B@            ",
"            N%O%b#P%7+5 b#7$G#l#1+W.c+Q%R%0+p  +>@}+6 .@8+p  @m.+%C+7 }+)@ +.+# A+< $@: [.q .+.+z t.f+S%q.9$T%U%            ",
"              V%*#=#=#y+l#6$F@`+y+o+`+2#}+d@:.:.}+$$W.P#W.'@A+O@'+)@6 C+n.k.k.@@Y.|.Y Y.W%P$u.o.* & g X%j Y%Z%              ",
"                `%'$Y+h$ &h$M+.&w$G$F@9+q@E@o$$$j.X.W.'#A+6 '+d#z%A+Y.S+Q+p < @ q & `#@@q.9 E$Y g P$f@_@+&@&                ",
"                  V@D@K+o@#&o@$&%&l#&&.&o x+`+D$'+>@1.X.X.C+o $$Y.7 '@!@z#k.N * >. +d E$^+f+* !%J..+& V#*&                  ",
"                    =&b#|@_$v#G#q@`+0+s@Y+b+o+X.:.Q+'#j.;#N+)@p Q+X.|$Y.!@P$`#@ 7.N.P$| ] 8 |$-&& A#|#;&                    ",
"                      >&O#2#*.,&o+3@0+N+b+9+:.X.+@*.m+}++@m.)@&&!@I@'+p$K@1.z g#%$)+d 2.'&# @%*$#.)&!&                      ",
"                          ^%x+r@Z+Y+b+`+c+a+'#o$$$.@9+~&W.l%'+7 X.p 1.%$8 N {&V : U m.# [.&@&@]&^&                          ",
"                            /&2#(&0+C$&%n$p@o _&7+)@j.o+)@X.:&a+A+m.8 O 5@`#*$q <&!@& d$v@G%[&}&                            ",
"                                Y+0+0+C$Y+y+=.)$6 s@/#'#}$N+'@|&!@n.@ 8+q 8 m.C+q P F.0 1&2&                                ",
"                                    M+c+n *.o 7+(#+@z%}+'+,%,%d | 5@Y.Y @@'#~ P 2. $3&4&                                    ",
"                                        m.j.p+5&W.5 0+M@x#8 ` 6&P+!@f@Q+p y.2 r#7&8&                                        ",
"                                                9&0&= s y@4+R+l.L#c.R.a#T.a&                                                "};
