/* XPM */
static char * switch_toggle_img_off_xpm[] = {
"25 25 516 2",
"  	c None",
". 	c #CEB49A",
"+ 	c #CCB096",
"@ 	c #BBA187",
"# 	c #AE947D",
"$ 	c #CBB7A2",
"% 	c #BEA893",
"& 	c #967E6C",
"* 	c #816B56",
"= 	c #604534",
"- 	c #7D624D",
"; 	c #8B6B56",
"> 	c #E3D9C5",
", 	c #D9C6AD",
"' 	c #C5AB91",
") 	c #B49A82",
"! 	c #E5D4C4",
"~ 	c #FAF5F0",
"{ 	c #FDF9F2",
"] 	c #F1E8D9",
"^ 	c #B3A08E",
"/ 	c #88705C",
"( 	c #442F21",
"_ 	c #4A3427",
": 	c #624A3A",
"< 	c #6D513D",
"[ 	c #775A43",
"} 	c #E7DECA",
"| 	c #D9C9B3",
"1 	c #C1A78F",
"2 	c #AF9582",
"3 	c #E4D4C0",
"4 	c #FEFEFD",
"5 	c #FFFFFF",
"6 	c #F7EEDF",
"7 	c #DFCEB9",
"8 	c #AD8F71",
"9 	c #7C6043",
"0 	c #533B2A",
"a 	c #4E3625",
"b 	c #554031",
"c 	c #574130",
"d 	c #694E3F",
"e 	c #ECE6D6",
"f 	c #DDD0BD",
"g 	c #CEB8A1",
"h 	c #D2C3B8",
"i 	c #D0BB9E",
"j 	c #EFE5DC",
"k 	c #F5ECDA",
"l 	c #C1AA96",
"m 	c #9F8671",
"n 	c #745A42",
"o 	c #63482C",
"p 	c #462F20",
"q 	c #503C2E",
"r 	c #433126",
"s 	c #473328",
"t 	c #5B4334",
"u 	c #F5F3E9",
"v 	c #DBCEBC",
"w 	c #E6DDCB",
"x 	c #F4EFE9",
"y 	c #D8C7B4",
"z 	c #BA9E7F",
"A 	c #F4EADD",
"B 	c #FFFFFD",
"C 	c #FEFDF9",
"D 	c #F8EED9",
"E 	c #F0E4CF",
"F 	c #B59C84",
"G 	c #9B7F66",
"H 	c #6E5640",
"I 	c #583F28",
"J 	c #432C1B",
"K 	c #3A2317",
"L 	c #745B4A",
"M 	c #3E2D21",
"N 	c #59412E",
"O 	c #F9F9F3",
"P 	c #DDD3C2",
"Q 	c #DCCCB8",
"R 	c #F3EFE6",
"S 	c #E3D6C2",
"T 	c #D9CAB4",
"U 	c #B6997E",
"V 	c #D7C3AE",
"W 	c #EBDAC4",
"X 	c #F0DEC4",
"Y 	c #EBD7B9",
"Z 	c #A78E77",
"` 	c #7C6148",
" .	c #745C4A",
"..	c #543E2D",
"+.	c #261409",
"@.	c #1D0D06",
"#.	c #1C0E07",
"$.	c #6D5846",
"%.	c #735C4D",
"&.	c #3D2B21",
"*.	c #402D20",
"=.	c #584030",
"-.	c #F0EDE2",
";.	c #CCB8A3",
">.	c #E7DACC",
",.	c #DDCEBC",
"'.	c #E1D3BD",
").	c #DBCDBD",
"!.	c #8B715C",
"~.	c #AD9174",
"{.	c #B59D86",
"].	c #C8AE95",
"^.	c #C5A98D",
"/.	c #7F6753",
"(.	c #5A4433",
"_.	c #614A37",
":.	c #584231",
"<.	c #2F1C11",
"[.	c #130804",
"}.	c #0E0705",
"|.	c #816855",
"1.	c #725A49",
"2.	c #6C5644",
"3.	c #34261E",
"4.	c #412F23",
"5.	c #E0D4BF",
"6.	c #DED1BC",
"7.	c #CEB7A1",
"8.	c #E9E1D5",
"9.	c #D9C5AF",
"0.	c #DCCDB9",
"a.	c #EFECE0",
"b.	c #7D6550",
"c.	c #8B715A",
"d.	c #7B6453",
"e.	c #99826D",
"f.	c #957B62",
"g.	c #856D59",
"h.	c #8B6F52",
"i.	c #654D3C",
"j.	c #402916",
"k.	c #200B02",
"l.	c #070100",
"m.	c #2D211B",
"n.	c #866B58",
"o.	c #745B4B",
"p.	c #705B49",
"q.	c #46352B",
"r.	c #3B2A20",
"s.	c #423025",
"t.	c #E7E1CD",
"u.	c #CDB69B",
"v.	c #CAB6A2",
"w.	c #D3BFA7",
"x.	c #D7C3AB",
"y.	c #DACBB8",
"z.	c #EAE5D3",
"A.	c #A89178",
"B.	c #432C1D",
"C.	c #6E5541",
"D.	c #836C56",
"E.	c #987D65",
"F.	c #8C725C",
"G.	c #866D56",
"H.	c #745B46",
"I.	c #362213",
"J.	c #1B0E09",
"K.	c #0E0201",
"L.	c #5B483B",
"M.	c #9B806A",
"N.	c #826756",
"O.	c #6E5645",
"P.	c #5D483A",
"Q.	c #2D2017",
"R.	c #35271C",
"S.	c #D7C7AF",
"T.	c #AE9277",
"U.	c #D4BEA6",
"V.	c #C0A48B",
"W.	c #C1A890",
"X.	c #E2D5C0",
"Y.	c #CEB79E",
"Z.	c #8C745D",
"`.	c #79634B",
" +	c #2F1C12",
".+	c #6C5442",
"++	c #9D7E5E",
"@+	c #8C7058",
"#+	c #876B51",
"$+	c #674C34",
"%+	c #27150B",
"&+	c #080101",
"*+	c #210D07",
"=+	c #5D4A3D",
"-+	c #9A806C",
";+	c #8E745E",
">+	c #735B47",
",+	c #715949",
"'+	c #34251F",
")+	c #33251E",
"!+	c #C8B299",
"~+	c #9B7E67",
"{+	c #CAB39A",
"]+	c #BCA188",
"^+	c #BDA58E",
"/+	c #D4BCA2",
"(+	c #BCA288",
"_+	c #60472E",
":+	c #AB9371",
"<+	c #807158",
"[+	c #42301F",
"}+	c #5F452F",
"|+	c #745A48",
"1+	c #634B39",
"2+	c #382415",
"3+	c #26190C",
"4+	c #5C3F24",
"5+	c #220B04",
"6+	c #5C4436",
"7+	c #866C59",
"8+	c #967C67",
"9+	c #755E4A",
"0+	c #513E33",
"a+	c #30221C",
"b+	c #B1977D",
"c+	c #A1846D",
"d+	c #AF957D",
"e+	c #B39981",
"f+	c #AD927B",
"g+	c #C2A88F",
"h+	c #A78D74",
"i+	c #6B4D2E",
"j+	c #A9916C",
"k+	c #AD9774",
"l+	c #75522F",
"m+	c #452810",
"n+	c #3F2412",
"o+	c #39200E",
"p+	c #73553A",
"q+	c #8B643E",
"r+	c #684424",
"s+	c #1A0400",
"t+	c #4B392B",
"u+	c #876D5B",
"v+	c #9F876F",
"w+	c #957C68",
"x+	c #77604E",
"y+	c #594537",
"z+	c #271D16",
"A+	c #AC9278",
"B+	c #907460",
"C+	c #A88E77",
"D+	c #A18771",
"E+	c #A28873",
"F+	c #AD9279",
"G+	c #8E735E",
"H+	c #755126",
"I+	c #AE9E79",
"J+	c #AA926D",
"K+	c #6C4B2D",
"L+	c #41210A",
"M+	c #3B1F0D",
"N+	c #462308",
"O+	c #866342",
"P+	c #815E3E",
"Q+	c #492710",
"R+	c #1B0200",
"S+	c #43372C",
"T+	c #967B66",
"U+	c #AF9780",
"V+	c #A18770",
"W+	c #7A614F",
"X+	c #584435",
"Y+	c #231A13",
"Z+	c #9C8068",
"`+	c #806452",
" @	c #AB9079",
".@	c #A08670",
"+@	c #9F836E",
"@@	c #A58B74",
"#@	c #8C735D",
"$@	c #61421A",
"%@	c #AC9C7A",
"&@	c #AC9B78",
"*@	c #8A653D",
"=@	c #573413",
"-@	c #3C1D07",
";@	c #411D04",
">@	c #765332",
",@	c #613E20",
"'@	c #321102",
")@	c #0B0100",
"!@	c #6C5C4F",
"~@	c #9E836C",
"{@	c #C7AD93",
"]@	c #B79E85",
"^@	c #846B58",
"/@	c #644F3E",
"(@	c #281B17",
"_@	c #967C64",
":@	c #705442",
"<@	c #9F856E",
"[@	c #8A705E",
"}@	c #947A64",
"|@	c #9F866E",
"1@	c #866E58",
"2@	c #59482D",
"3@	c #977E4E",
"4@	c #B6B3A7",
"5@	c #A89573",
"6@	c #7E572D",
"7@	c #563519",
"8@	c #5A391A",
"9@	c #603B17",
"0@	c #472004",
"a@	c #100300",
"b@	c #0D0201",
"c@	c #B2A193",
"d@	c #B39980",
"e@	c #D0B69D",
"f@	c #B89E86",
"g@	c #A18670",
"h@	c #523F32",
"i@	c #241915",
"j@	c #947960",
"k@	c #6F5642",
"l@	c #8A715D",
"m@	c #876B59",
"n@	c #8B715D",
"o@	c #977D68",
"p@	c #8C725D",
"q@	c #735B48",
"r@	c #837552",
"s@	c #A9A48C",
"t@	c #ABA592",
"u@	c #9F8966",
"v@	c #8F683E",
"w@	c #724822",
"x@	c #381E0C",
"y@	c #090000",
"z@	c #170100",
"A@	c #795D56",
"B@	c #AB907D",
"C@	c #D2BBA2",
"D@	c #D5BEA6",
"E@	c #A98F79",
"F@	c #A78B74",
"G@	c #2C1F17",
"H@	c #1C1512",
"I@	c #826752",
"J@	c #7B624D",
"K@	c #6E5746",
"L@	c #8E745D",
"M@	c #937762",
"N@	c #816856",
"O@	c #624E3C",
"P@	c #755E40",
"Q@	c #8A6837",
"R@	c #60320B",
"S@	c #6A350A",
"T@	c #561901",
"U@	c #310300",
"V@	c #340700",
"W@	c #6A4039",
"X@	c #BAA492",
"Y@	c #B0957D",
"Z@	c #DCCCB7",
"`@	c #DACAB4",
" #	c #B79C84",
".#	c #866C58",
"+#	c #1F1612",
"@#	c #1F1713",
"##	c #836951",
"$#	c #7C634D",
"%#	c #533F30",
"&#	c #856B58",
"*#	c #846955",
"=#	c #8F7560",
"-#	c #8D735E",
";#	c #846A57",
">#	c #7B614F",
",#	c #38261A",
"'#	c #080403",
")#	c #250B00",
"!#	c #290E02",
"~#	c #281612",
"{#	c #887369",
"]#	c #B29B89",
"^#	c #BCA189",
"/#	c #DCCBB5",
"(#	c #E4D9C5",
"_#	c #C4AC94",
":#	c #C0A88F",
"<#	c #3E2C25",
"[#	c #191211",
"}#	c #1B1510",
"|#	c #795D4C",
"1#	c #624B3B",
"2#	c #564234",
"3#	c #856B57",
"4#	c #7B6351",
"5#	c #8D745E",
"6#	c #8F745F",
"7#	c #907662",
"8#	c #846A58",
"9#	c #7D6453",
"0#	c #856C59",
"a#	c #917761",
"b#	c #987D68",
"c#	c #907562",
"d#	c #B49A81",
"e#	c #D6C5AF",
"f#	c #C9B39C",
"g#	c #C4A990",
"h#	c #796352",
"i#	c #1C1313",
"j#	c #140F0D",
"k#	c #71553E",
"l#	c #6C5341",
"m#	c #4D3B2B",
"n#	c #685244",
"o#	c #7C6251",
"p#	c #8A705C",
"q#	c #8F7562",
"r#	c #907560",
"s#	c #866D59",
"t#	c #876C5A",
"u#	c #9A806A",
"v#	c #B69B82",
"w#	c #CDB39B",
"x#	c #D5C0A8",
"y#	c #B8A28F",
"z#	c #B79C85",
"A#	c #97806B",
"B#	c #241814",
"C#	c #140F0E",
"D#	c #17110F",
"E#	c #634A36",
"F#	c #664F3D",
"G#	c #453327",
"H#	c #634C3E",
"I#	c #7D6350",
"J#	c #7F6652",
"K#	c #7D6552",
"L#	c #977D66",
"M#	c #9D836C",
"N#	c #A0866E",
"O#	c #A98F77",
"P#	c #B3987F",
"Q#	c #B49982",
"R#	c #BAA088",
"S#	c #AD917B",
"T#	c #BCA18A",
"U#	c #98806C",
"V#	c #2F201C",
"W#	c #160F0F",
"X#	c #0E0E0D",
"Y#	c #624B36",
"Z#	c #604B39",
"`#	c #4C392B",
" $	c #543F33",
".$	c #7B624F",
"+$	c #79604F",
"@$	c #866C5B",
"#$	c #8D755F",
"$$	c #8F7662",
"%$	c #917864",
"&$	c #957B67",
"*$	c #816654",
"=$	c #8A6F5C",
"-$	c #9B836E",
";$	c #665044",
">$	c #291C18",
",$	c #1A1210",
"'$	c #181212",
")$	c #5C4433",
"!$	c #5D4536",
"~$	c #4D3A2C",
"{$	c #49362A",
"]$	c #5B4639",
"^$	c #755D4C",
"/$	c #755E4B",
"($	c #806856",
"_$	c #8A735F",
":$	c #796150",
"<$	c #564238",
"[$	c #31201B",
"}$	c #211814",
"|$	c #16100E",
"1$	c #16110F",
"2$	c #543D30",
"3$	c #574234",
"4$	c #4B382B",
"5$	c #453328",
"6$	c #433025",
"7$	c #3E2C22",
"8$	c #3E2D23",
"9$	c #402F25",
"0$	c #382921",
"a$	c #2B1E19",
"b$	c #271C17",
"c$	c #251A16",
"d$	c #1E1511",
"e$	c #15100F",
"f$	c #161111",
"g$	c #48342A",
"h$	c #46342C",
"i$	c #412F26",
"j$	c #3C2A23",
"k$	c #37261E",
"l$	c #2E2119",
"m$	c #291E19",
"n$	c #211915",
"o$	c #211816",
"p$	c #1C1614",
"q$	c #1F1815",
"              . + @ # $ % & * = - ;               ",
"          > , ' ) ! ~ { ] ^ / ( _ : < [           ",
"        } | 1 2 3 4 5 5 6 7 8 9 0 a b c d         ",
"      e f g h i j 5 5 5 k l m n o p q r s t       ",
"    u v w x y z A B C D E F G H I J K L r M N     ",
"  O P Q R S T U V W X Y Z `  ...+.@.#.$.%.&.*.=.  ",
"  -.;.>.,.'.).!.~.{.].^./.(._.:.<.[.}.|.1.2.3.4.  ",
"5.6.7.8.9.0.a.b.c.d.e.f.g.h.i.j.k.l.m.n.o.p.q.r.s.",
"t.u.v.w.x.y.z.A.B.C.D.E.F.G.H.I.J.K.L.M.N.O.P.Q.R.",
"S.T.U.V.W.X.Y.Z.`. +.+++@+#+$+%+&+*+=+-+;+>+,+'+)+",
"!+~+{+]+^+/+(+_+:+<+[+}+|+1+2+3+4+5+6+7+8+9+ .0+a+",
"b+c+d+e+f+g+h+i+j+k+l+m+n+o+p+q+r+s+t+u+v+w+x+y+z+",
"A+B+C+D+E+F+G+H+I+J+K+L+M+N+O+P+Q+R+S+T+U+V+W+X+Y+",
"Z+`+ @.@+@@@#@$@%@&@*@=@-@;@>@,@'@)@!@~@{@]@^@/@(@",
"_@:@<@[@}@|@1@2@3@4@5@6@7@8@9@0@a@b@c@d@e@f@g@h@i@",
"j@k@l@m@n@o@p@q@r@s@t@u@v@w@x@y@z@A@B@C@D@E@F@G@H@",
"I@J@K@L@n@n@M@N@O@P@Q@R@S@T@U@V@W@X@Y@Z@`@ #.#+#@#",
"##$#%#&#|.*#=#-#;#>#,#'#)#!#~#{#]#^#/#(#_#:#<#[#}#",
"  |#1#2#3#4#5#6#7#8#9#0#a#M.b#c#d#e#Z@f#g#h#i#j#  ",
"  k#l#m#n#o#o#p#q#r#q#s#t#u#<@v#w#x#y#z#A#B#C#D#  ",
"    E#F#G#H#I#J#K#=#L#M#N#O#P#Q#R#S#T#U#V#W#X#    ",
"      Y#Z#`# $.$+$1.@$#$$$%$&$*$=$-$;$>$,$'$      ",
"        )$!$~${$]$^$/$^$($o#_$:$<$[$}$|$1$        ",
"          2$3$4$5$6$7$8$9$0$a$b$c$d$e$f$          ",
"              g$h$i$j$k$l$m$n$o$p$q$              "};
