/* XPM */
static char * switch_toggle_img_on_xpm[] = {
"25 25 515 2",
"  	c None",
". 	c #CEB49A",
"+ 	c #CCB096",
"@ 	c #C4A88D",
"# 	c #9C7F68",
"$ 	c #D6C1AA",
"% 	c #DDCBB2",
"& 	c #DBC6AE",
"* 	c #C9B398",
"= 	c #82644F",
"- 	c #8B6E57",
"; 	c #8B6B56",
"> 	c #E3D9C5",
", 	c #D9C6AD",
"' 	c #C5AB91",
") 	c #B59980",
"! 	c #C2A78C",
"~ 	c #9E836E",
"{ 	c #DDD1BD",
"] 	c #E7DECB",
"^ 	c #E1D2BD",
"/ 	c #CBB59E",
"( 	c #7C604D",
"_ 	c #6D5343",
": 	c #674E3F",
"< 	c #6D513D",
"[ 	c #775A43",
"} 	c #E7DECA",
"| 	c #D9C9B3",
"1 	c #C1A78F",
"2 	c #AD9381",
"3 	c #C7B3A1",
"4 	c #CCB29A",
"5 	c #BAA188",
"6 	c #C3AE97",
"7 	c #C6AE93",
"8 	c #BFA589",
"9 	c #A1876F",
"0 	c #856C59",
"a 	c #644E3E",
"b 	c #554030",
"c 	c #574130",
"d 	c #694E3F",
"e 	c #ECE6D6",
"f 	c #DDD0BD",
"g 	c #CEB8A1",
"h 	c #D2C3B8",
"i 	c #DACAB8",
"j 	c #C5AB95",
"k 	c #CBB29A",
"l 	c #C7AD95",
"m 	c #C4A88F",
"n 	c #AE927B",
"o 	c #AF937A",
"p 	c #AC9179",
"q 	c #957964",
"r 	c #866B55",
"s 	c #7A624F",
"t 	c #745E4A",
"u 	c #433126",
"v 	c #473328",
"w 	c #5B4334",
"x 	c #F5F3E9",
"y 	c #DBCEBC",
"z 	c #E6DDCB",
"A 	c #F4EFE9",
"B 	c #DBCBB8",
"C 	c #CCB39C",
"D 	c #C4AA92",
"E 	c #C6AD97",
"F 	c #C9AF98",
"G 	c #C9AE95",
"H 	c #C3A98E",
"I 	c #B29980",
"J 	c #A18970",
"K 	c #927863",
"L 	c #846A56",
"M 	c #816754",
"N 	c #775E4C",
"O 	c #765D4C",
"P 	c #3E2D21",
"Q 	c #59412E",
"R 	c #F9F9F3",
"S 	c #DDD3C2",
"T 	c #DCCCB8",
"U 	c #F3EFE6",
"V 	c #E3D6C2",
"W 	c #E2D5C0",
"X 	c #D3BFAB",
"Y 	c #DDCEB9",
"Z 	c #D4BBA3",
"` 	c #C5AA91",
" .	c #BBA188",
"..	c #A48A73",
"+.	c #A58B72",
"@.	c #9C836B",
"#.	c #967C64",
"$.	c #8D7460",
"%.	c #755E4B",
"&.	c #735C4D",
"*.	c #3D2B21",
"=.	c #402D20",
"-.	c #584030",
";.	c #F0EDE2",
">.	c #CCB8A3",
",.	c #E7DACC",
"'.	c #DDCEBC",
").	c #E1D3BD",
"!.	c #E1D4C4",
"~.	c #ECE6D9",
"{.	c #E1D2BC",
"].	c #C8AE95",
"^.	c #B1967F",
"/.	c #856D58",
"(.	c #7C6450",
"_.	c #765E48",
":.	c #7E6450",
"<.	c #8D735E",
"[.	c #947A65",
"}.	c #8E735E",
"|.	c #866C59",
"1.	c #725A49",
"2.	c #6C5644",
"3.	c #34261E",
"4.	c #412F23",
"5.	c #E0D4BF",
"6.	c #DED1BC",
"7.	c #CEB7A1",
"8.	c #E9E1D5",
"9.	c #D9C5AF",
"0.	c #DCCDB9",
"a.	c #EFECE0",
"b.	c #E6DDCA",
"c.	c #D6C2AA",
"d.	c #9A826D",
"e.	c #7A634E",
"f.	c #604834",
"g.	c #86694C",
"h.	c #7F5F3F",
"i.	c #6B4D30",
"j.	c #68513F",
"k.	c #6E5845",
"l.	c #7F6654",
"m.	c #8D735F",
"n.	c #866B58",
"o.	c #745B4B",
"p.	c #705B49",
"q.	c #46352B",
"r.	c #3B2A20",
"s.	c #423025",
"t.	c #E7E1CD",
"u.	c #CDB69B",
"v.	c #CAB6A2",
"w.	c #D3BFA7",
"x.	c #D7C3AB",
"y.	c #DACBB8",
"z.	c #EAE5D3",
"A.	c #DAC9B1",
"B.	c #A29079",
"C.	c #B0A998",
"D.	c #A8997E",
"E.	c #AA9072",
"F.	c #AE8E6E",
"G.	c #906E4D",
"H.	c #64472D",
"I.	c #6A4929",
"J.	c #6F5032",
"K.	c #6F5745",
"L.	c #816956",
"M.	c #9B806A",
"N.	c #826756",
"O.	c #6E5645",
"P.	c #5D483A",
"Q.	c #2D2017",
"R.	c #35271C",
"S.	c #D7C7AF",
"T.	c #AE9277",
"U.	c #D4BEA6",
"V.	c #C0A48B",
"W.	c #C1A890",
"X.	c #CEB79E",
"Y.	c #AB967E",
"Z.	c #ACA289",
"`.	c #C6C4BC",
" +	c #E9E2D0",
".+	c #D0B28E",
"++	c #BE9873",
"@+	c #AE8B6A",
"#+	c #97785E",
"$+	c #60432A",
"%+	c #543A24",
"&+	c #654A33",
"*+	c #7B6250",
"=+	c #9A806C",
"-+	c #8E745E",
";+	c #735B47",
">+	c #715949",
",+	c #34251F",
"'+	c #33251E",
")+	c #C8B299",
"!+	c #9B7E67",
"~+	c #CAB39A",
"{+	c #BCA188",
"]+	c #BDA58E",
"^+	c #D4BCA2",
"/+	c #BCA288",
"(+	c #8D785D",
"_+	c #BEB39D",
":+	c #ECDDBE",
"<+	c #CEA373",
"[+	c #A77E5A",
"}+	c #8B6F58",
"|+	c #8A694D",
"1+	c #A37E5B",
"2+	c #946F4F",
"3+	c #583C29",
"4+	c #4F3520",
"5+	c #6F5743",
"6+	c #967C67",
"7+	c #755E4A",
"8+	c #745C4A",
"9+	c #513E33",
"0+	c #30221C",
"a+	c #B1977D",
"b+	c #A1846D",
"c+	c #AF957D",
"d+	c #B39981",
"e+	c #AD927B",
"f+	c #C2A88F",
"g+	c #A78D75",
"h+	c #988063",
"i+	c #E7D9AE",
"j+	c #D7AD75",
"k+	c #B18865",
"l+	c #967961",
"m+	c #846851",
"n+	c #77553C",
"o+	c #B28866",
"p+	c #8B6447",
"q+	c #684935",
"r+	c #51351F",
"s+	c #755C46",
"t+	c #876D5B",
"u+	c #9F876F",
"v+	c #957C68",
"w+	c #77604E",
"x+	c #594537",
"y+	c #271D16",
"z+	c #AC9278",
"A+	c #907460",
"B+	c #A88E77",
"C+	c #A18771",
"D+	c #A28873",
"E+	c #AD9279",
"F+	c #907560",
"G+	c #AC9172",
"H+	c #E6C896",
"I+	c #E3BF90",
"J+	c #9A795A",
"K+	c #8C6F57",
"L+	c #93765C",
"M+	c #997758",
"N+	c #C39B79",
"O+	c #AE825E",
"P+	c #7B573E",
"Q+	c #583B27",
"R+	c #896F58",
"S+	c #967B66",
"T+	c #AF9780",
"U+	c #A18770",
"V+	c #7A614F",
"W+	c #584435",
"X+	c #231A13",
"Y+	c #9C8068",
"Z+	c #806452",
"`+	c #AB9079",
" @	c #A08670",
".@	c #9F836E",
"+@	c #A58B74",
"@@	c #8C735D",
"#@	c #AC8C6C",
"$@	c #E4BF8F",
"%@	c #E9CB9F",
"&@	c #BF9D7A",
"*@	c #AA917D",
"=@	c #9D8167",
"-@	c #A98C72",
";@	c #C89F78",
">@	c #A38266",
",@	c #533724",
"'@	c #A48E79",
")@	c #9E836C",
"!@	c #C7AD93",
"~@	c #B79E85",
"{@	c #846B58",
"]@	c #644F3E",
"^@	c #281B17",
"/@	c #705442",
"(@	c #9F856E",
"_@	c #8A705E",
":@	c #947A64",
"<@	c #9F866E",
"[@	c #866E58",
"}@	c #A6896F",
"|@	c #EED4AD",
"1@	c #EDD9BB",
"2@	c #EEE0D1",
"3@	c #F3EAD9",
"4@	c #D5C4AF",
"5@	c #8A7362",
"6@	c #745C49",
"7@	c #442D20",
"8@	c #987A61",
"9@	c #6A4D38",
"0@	c #B3A08E",
"a@	c #B39980",
"b@	c #D0B69D",
"c@	c #B89E86",
"d@	c #A18670",
"e@	c #523F32",
"f@	c #241915",
"g@	c #947960",
"h@	c #6F5642",
"i@	c #8A715D",
"j@	c #876B59",
"k@	c #8B715D",
"l@	c #977D68",
"m@	c #8C725D",
"n@	c #BAA18A",
"o@	c #EEDDC4",
"p@	c #FDFBF9",
"q@	c #FFFFFF",
"r@	c #FAF4E7",
"s@	c #DDCCB7",
"t@	c #AB8D6F",
"u@	c #5C432D",
"v@	c #543C2B",
"w@	c #60442E",
"x@	c #997D6A",
"y@	c #D2BBA2",
"z@	c #D5BEA6",
"A@	c #A98F79",
"B@	c #A78B74",
"C@	c #2C1F17",
"D@	c #1C1512",
"E@	c #826752",
"F@	c #7B624D",
"G@	c #6E5746",
"H@	c #8E745D",
"I@	c #937762",
"J@	c #BFA98D",
"K@	c #F1E8E1",
"L@	c #FFFFFE",
"M@	c #F6ECD9",
"N@	c #C4AD95",
"O@	c #9C826D",
"P@	c #775C40",
"Q@	c #4A321F",
"R@	c #463022",
"S@	c #967E68",
"T@	c #DCCCB7",
"U@	c #DACAB4",
"V@	c #B79C84",
"W@	c #866C58",
"X@	c #1F1612",
"Y@	c #1F1713",
"Z@	c #836951",
"`@	c #7C634D",
" #	c #533F30",
".#	c #856B58",
"+#	c #816855",
"@#	c #846955",
"##	c #907660",
"$#	c #C3A888",
"%#	c #FAF4EC",
"&#	c #FEFDFB",
"*#	c #FCF7EB",
"=#	c #E5D4BD",
"-#	c #B9A18C",
";#	c #957C63",
">#	c #6E553C",
",#	c #63482E",
"'#	c #442D1D",
")#	c #655245",
"!#	c #E4D9C5",
"~#	c #C4AC94",
"{#	c #C0A88F",
"]#	c #3E2C25",
"^#	c #191211",
"/#	c #1B1510",
"(#	c #795D4C",
"_#	c #624B3B",
":#	c #564234",
"<#	c #856B57",
"[#	c #7B6351",
"}#	c #957A61",
"|#	c #B59A7F",
"1#	c #E8D9C9",
"2#	c #F6ECDF",
"3#	c #F7EDD9",
"4#	c #F0E1C6",
"5#	c #CBB6A0",
"6#	c #8E7259",
"7#	c #896F59",
"8#	c #513B2C",
"9#	c #341F0F",
"0#	c #301D10",
"a#	c #332319",
"b#	c #C7B19B",
"c#	c #C4A990",
"d#	c #796352",
"e#	c #1C1313",
"f#	c #140F0D",
"g#	c #71553E",
"h#	c #6C5341",
"i#	c #4D3B2B",
"j#	c #685244",
"k#	c #7C6251",
"l#	c #816854",
"m#	c #A38972",
"n#	c #C1A88E",
"o#	c #D9C4AC",
"p#	c #DDC4AA",
"q#	c #D3B796",
"r#	c #7B624E",
"s#	c #553F2E",
"t#	c #5E4837",
"u#	c #23120A",
"v#	c #140703",
"w#	c #1B110E",
"x#	c #B69B84",
"y#	c #97806B",
"z#	c #241814",
"A#	c #140F0E",
"B#	c #17110F",
"C#	c #634A36",
"D#	c #664F3D",
"E#	c #453327",
"F#	c #634C3E",
"G#	c #755942",
"H#	c #90755A",
"I#	c #917862",
"J#	c #A28974",
"K#	c #9A806A",
"L#	c #765E4C",
"M#	c #785E44",
"N#	c #624A36",
"O#	c #472F1C",
"P#	c #220E06",
"Q#	c #090302",
"R#	c #3C332C",
"S#	c #98806C",
"T#	c #2F201C",
"U#	c #160F0F",
"V#	c #0E0E0D",
"W#	c #624B36",
"X#	c #604B39",
"Y#	c #4C392B",
"Z#	c #543F33",
"`#	c #573D2E",
" $	c #644C3B",
".$	c #8E765E",
"+$	c #997E64",
"@$	c #917863",
"#$	c #886E58",
"$$	c #6E5542",
"%$	c #311D0F",
"&$	c #1B0C08",
"*$	c #060000",
"=$	c #372721",
"-$	c #291C18",
";$	c #1A1210",
">$	c #181212",
",$	c #5C4433",
"'$	c #5D4536",
")$	c #4D3A2C",
"!$	c #4A3627",
"~$	c #3C2518",
"{$	c #4D3626",
"]$	c #886F5A",
"^$	c #997B5F",
"/$	c #8A6E54",
"($	c #896C51",
"_$	c #664D39",
":$	c #27160C",
"<$	c #100604",
"[$	c #1E0A08",
"}$	c #211714",
"|$	c #16100E",
"1$	c #16110F",
"2$	c #543D30",
"3$	c #574234",
"4$	c #4B382B",
"5$	c #402F24",
"6$	c #1C100B",
"7$	c #4C3725",
"8$	c #83654A",
"9$	c #826853",
"0$	c #71573F",
"a$	c #49301C",
"b$	c #0B0401",
"c$	c #0E0807",
"d$	c #1D1410",
"e$	c #15100F",
"f$	c #161111",
"g$	c #48342A",
"h$	c #46342C",
"i$	c #402E25",
"j$	c #2F201A",
"k$	c #3A261B",
"l$	c #3E2B21",
"m$	c #160F0B",
"n$	c #191210",
"o$	c #1C1613",
"p$	c #1F1815",
"              . + @ # $ % & * = - ;               ",
"          > , ' ) ! ~ { ] ^ / ( _ : < [           ",
"        } | 1 2 3 4 5 6 7 7 8 9 0 a b c d         ",
"      e f g h i j k l m n o p q r s t u v w       ",
"    x y z A B C D E F G H I J K L M N O u P Q     ",
"  R S T U V W X Y Z `  .....+.@.#.$.s %.&.*.=.-.  ",
"  ;.>.,.'.).!.~.{.].^./.(._.:.<.<.[.}.|.1.2.3.4.  ",
"5.6.7.8.9.0.a.b.c.d.e.f.g.h.i.j.k.l.m.n.o.p.q.r.s.",
"t.u.v.w.x.y.z.A.B.C.D.E.F.G.H.I.J.K.L.M.N.O.P.Q.R.",
"S.T.U.V.W.W X.Y.Z.`. +.+++@+#+$+%+&+*+=+-+;+>+,+'+",
")+!+~+{+]+^+/+(+_+:+<+[+}+|+1+2+3+4+5+|.6+7+8+9+0+",
"a+b+c+d+e+f+g+h+i+j+k+l+m+n+o+p+q+r+s+t+u+v+w+x+y+",
"z+A+B+C+D+E+F+G+H+I+J+K+L+M+N+O+P+Q+R+S+T+U+V+W+X+",
"Y+Z+`+ @.@+@@@#@$@%@&@C+*@=@-@;@>@,@'@)@!@~@{@]@^@",
"#./@(@_@:@<@[@}@|@1@2@3@4@5@6@7@8@9@0@a@b@c@d@e@f@",
"g@h@i@j@k@l@m@n@o@p@q@q@r@s@t@u@v@w@x@y@z@A@B@C@D@",
"E@F@G@H@k@k@I@J@K@q@q@L@M@N@O@P@Q@R@S@T@U@V@W@X@Y@",
"Z@`@ #.#+#@###$#%#q@&#*#=#-#;#>#,#'#)#!#~#{#]#^#/#",
"  (#_#:#<#[#}#|#1#2#3#4#5#6#7#8#9#0#a#b#c#d#e#f#  ",
"  g#h#i#j#k#l#m#n#o#p#q#r#s#t#b u#v#w#x#y#z#A#B#  ",
"    C#D#E#F#:.G#H#I#J#K#L#M#N#O#P#Q#R#S#T#U#V#    ",
"      W#X#Y#Z#`# $1..$+$@$#$$$%$&$*$=$-$;$>$      ",
"        ,$'$)$!$~${$]$^$/$($_$:$<$[$}$|$1$        ",
"          2$3$4$5$6$7$8$9$0$a$b$c$d$e$f$          ",
"              g$h$i$j$k$l$C@m$n$o$p$              "};
